<?xml version="1.0" encoding="utf-8"?>
<!-- Generator: Adobe Illustrator 16.0.4, SVG Export Plug-In . SVG Version: 6.00 Build 0)  -->
<!DOCTYPE svg PUBLIC "-//W3C//DTD SVG 1.1//EN" "http://www.w3.org/Graphics/SVG/1.1/DTD/svg11.dtd">
<svg version="1.1" id="Layer_1" xmlns="http://www.w3.org/2000/svg" xmlns:xlink="http://www.w3.org/1999/xlink"
	 viewBox="0 0 370 140"
	 xml:space="preserve" fill='#fff'>
<g>
		<path fill="#C41425" d="M138.278,61.56c-6.629,8.791-10.938,9.199-18.598,9.199c-4.561,0-7.638,1.995-9.403,6.094
			c-0.808,1.868-2.165,3.856-2.974,5.042l-0.563,0.854c-0.022,0.021-0.037,0.029-0.052,0.052c-0.037-0.223-0.067-0.497-0.067-0.897
			c0-0.645,0.074-1.527,0.304-2.736c0.052-0.274,0.082-0.533,0.082-0.771c0-1.023-0.453-1.639-0.868-1.988
			c-1.372-1.154-3.404-0.391-5.361,0.35c-0.453,0.171-1.061,0.4-1.491,0.527c-2.848-3.691-6.118-4.078-12.443-3.357
			c-2.758,0.311-4.805-0.375-6.452-0.928c-1.208-0.408-2.254-0.73-3.337-0.66c-3.715,0.241-5.376,6.947-5.636,5.968
			c-0.126-0.407-0.259-0.941-0.333-1.757c-0.297-3.169-2.959-4.352-3.834-4.737c-2.455-1.09-6.066-0.797-7.816-0.452
			c-2.002,0.396-3.174-0.582-3.804-1.476c-1.068-1.505-1.246-3.7-0.423-5.103c0.542-0.919,1.572-1.482,2.692-1.472
			c1.498,0.015,2.885,1.021,3.916,2.833c1.505,2.658,3.53,2.184,4.509,1.954c0.192-0.041,0.482-0.111,0.571-0.097
			c0,0.004,0.133,0.089,0.356,0.419c0.868,1.327,4.642,2.878,6.822,3.066c1.342,0.111,2.358-0.196,3.033-0.923
			c1.802-1.939,3.263-2.822,3.959-3.111c1.75,2.588,4.657,4.127,8.788,4.476c4.205,0.345,7.126-1.81,7.453-5.491
			c0.126-1.439-0.312-2.773-1.253-3.849c-1.253-1.428-3.345-2.307-5.74-2.414l-1.861,0.204c-0.089,0.015-0.215,0.033-0.319,0.052
			c0.601-0.649,1.698-1.235,3.856-1.646c3.544-0.68,8.625,0.9,11.301,2.754c1.209,0.842,1.721,1.568,1.787,1.973l0.015,0.268
			c-0.126,0.104-0.927,0.334-1.402,0.471c-0.823,0.236-1.75,0.508-2.595,1.041c-1.787,1.124-2.729,2.785-2.581,4.551
			c0.141,1.705,1.29,3.199,2.988,3.904c2.084,0.863,4.546,0.352,6.6-1.373c2.996-2.528,3.011-5.234,3.018-7.211l-0.082-0.241
			c1.735-0.226,3.263-1.286,4.16-3.056c0.778-1.531,0.979-3.459,0.393-5.238c3.7-1.795,4.887-4.027,5.198-5.688
			c0.445-2.381-0.712-4.369-1.839-5.354c-3.285-2.858-7.052-1.29-8.661-0.62c-0.89,0.367-3.026,1.064-3.671-0.407
			c-0.312-0.72-0.133-1.769,0.571-2.091c0.994-0.457,2.521-0.338,3.989-0.227c2.18,0.163,4.427,0.334,5.888-1.268
			c1.023-1.116,1.32-2.811,0.919-5.173c-0.712-4.227-4.776-10.745-9.529-11.342c-1.55-0.192-4.45,0.145-6.43,4.59
			c-2.395,5.409-5.272,9.181-7.705,10.085c-0.608,0.23-1.127,0.238-1.58,0.026c-1.542-0.724-1.594-1.413-0.386-4.913
			c0.942-2.725,2.232-6.459-0.452-9.617c-1.713-2.01-6.37-3.598-9.581-2.544c-1.95,0.638-3.151,2.181-3.3,4.234
			c-0.23,3.2-1.617,4.894-2.833,5.413c-0.586,0.248-1.149,0.234-1.476-0.037c-0.415-0.352-0.526-1.172-0.274-2.202
			C76.87,21.093,76.299,9.811,67.927,0l-2.595,2.217c9.084,10.652,7.905,23.211,4.13,30.73c-2.899,5.783-7.423,8.275-10.412,8.65
			c-2.899,0.366-6.511,0.24-7.252-2.422c-0.652-2.321,0.957-5.18,1.654-5.487c0.756-0.111,2.469,0.968,3.723,1.75
			c1.906,1.201,3.7,2.328,5.406,1.694c0.616-0.23,1.431-0.782,1.839-2.129c1.335-4.367-6.392-12.009-6.466-12.083
			c-3.819-3.741-11.494-6.804-15.728-7.786c-3.367-0.779-5.762-0.497-7.305,0.853c-1.075,0.931-1.616,2.272-1.616,3.985
			c0,0.264,0.015,0.538,0.044,0.82c0.267,3.01,1.283,6.47,2.262,9.814c1.016,3.488,2.069,7.096,2.165,9.858
			c0.015,0.408,0.022,0.768,0.022,1.091c0,2.269-0.371,2.576-1.401,3.434l-1.632,1.497c-0.986,1.023-2.603,2.71-2.603,4.891
			c0,0.101,0,0.204,0.007,0.308c0.104,1.461,0.919,2.803,2.439,3.994c2.944,2.312,3.723,3.807,3.812,4.312
			c-0.274,0.111-1.179,0.349-3.434-0.104c-5.51-1.101-8.439,0.957-9.344,3.248c-0.371,0.939-0.43,1.929-0.215,2.915
			c-0.044-0.007-0.082-0.022-0.126-0.03C19.963,64.934,11.235,65.505,0,74.377l2.114,2.684c10.211-8.062,17.879-8.635,22.514-7.692
			c4.13,0.838,7.697,3.341,9.536,6.692c0.556,1.014,0.63,2.223,0.215,3.312c-0.512,1.32-1.713,2.366-3.374,2.952
			c-1.617,0.556-3.671,0.786-5.844,1.023c-5.117,0.563-11.479,1.261-12.154,7.683c-0.571,5.436,4.843,13.051,10.723,15.083
			c4.197,1.461,8.068-0.022,10.612-4.063l0.675-1.076c1.787-2.869,3.633-5.828,5.22-6.125c0.186-0.037,0.742-0.133,1.743,0.623
			c1.617,1.224,1.061,5.243,0.608,8.477c-0.497,3.545-0.919,6.6,0.793,8.268c0.586,0.564,1.653,1.172,3.448,0.868
			c2.588-0.444,4.397-3.204,6.496-6.399c1.891-2.893,4.042-6.17,6.437-6.801c1.401-0.371,2.499-0.148,3.344,0.683
			c1.632,1.609,2.677,6.11,0.72,13.897l0,0c-0.008,0.021-0.015,0.044-0.015,0.059c0,0.008,0,0.015,0,0.015h-0.007
			c-2.269,11.034,0.979,19.593,9.64,25.436l1.913-2.833c-7.512-5.064-10.189-12.229-8.209-21.905
			c0.616-2.848,2.425-5.628,4.294-6.607c1.045-0.541,1.646-0.296,1.839-0.215c0.408,0.171,0.645,0.431,0.786,0.838
			c0.312,0.919,0.111,2.817-1.379,5.392c-1.757,3.025-0.764,5.16-0.015,6.162c1.913,2.559,5.999,3.195,8.869,2.499
			c2.536-0.616,4.19-2.188,4.546-4.309c0.489-2.944-0.793-6.236-2.039-9.418c-1.202-3.069-2.44-6.243-1.624-8.194
			c0.534-1.26,1.928-1.979,2.996-2.113c0.712-0.089,1.127,0.082,1.224,0.215c0.104,0.141,0.186,0.668-0.252,1.699
			c-1.387,3.292-0.793,6.688,1.483,8.461c2.417,1.868,5.896,1.431,9.307-1.172c2.395-1.824,3.537-3.797,3.381-5.852
			c-0.252-3.434-4.079-5.554-5.524-6.348c-0.467-0.26-0.601-0.867-0.445-1.268c0.282-0.712,1.446-0.52,1.936-0.4
			c1.357,0.326,2.803-0.09,3.871-1.127c1.275-1.238,1.787-3.115,1.387-5.006c-0.593-2.773-2.002-5.576-8.231-7.363
			c-7.245-2.069-10.671-0.342-15.017,1.838l-1.98,0.986c-4.094,1.966-5.628,1.469-7.95,0.312c-2.284-1.143-6.333-3.107-11.709-2.055
			c-1.869,0.363-3.701-0.074-5.443-1.305c-2.921-2.062-4.012-5.834-4.634-10.035c-0.942-6.385,2.699-12.099,6.696-13.43
			c4.82-1.605,9.248-0.716,14.816,2.984c4.146,2.752,6.541,2.604,11.175,2.17l0.326-0.034c0.942-0.085,1.632-0.915,1.542-1.857
			c-0.089-0.938-0.919-1.632-1.861-1.542l-0.326,0.029c-0.208,0.019-0.4,0.037-0.601,0.056c-3.3-0.337-5.532-4.108-6.192-7.204
			c-0.408-1.891-0.378-4.639,2.039-6.989c0.912-0.886,2.455-1.356,4.034-1.224c0.793,0.062,2.099,0.326,3.307,1.268
			c-1.898,0.396-3.552,1.729-4.315,3.534c-0.297,0.704-0.445,1.416-0.445,2.106c0,1.367,0.579,2.654,1.676,3.596
			c1.935,1.661,4.864,1.769,7.282,0.271c0.749-0.468,1.261-1.08,1.646-1.78c0.89,1.042,1.832,1.991,2.803,2.817
			c-2.396,0.571-5.228,1.77-6.207,4.947c-0.408,1.326,0.089,2.164,0.423,2.543c1.06,1.205,2.833,0.9,4.39,0.631l1.135-0.156
			c1.417-0.204,2.632,0.389,3.315,1.25c0.312,0.393,0.467,0.789,0.422,1.301c-0.156,1.772-1.424,2.573-3.767,2.381
			c-3.352-0.282-5.517-1.402-6.615-3.43c-0.348-0.646-0.986-1.072-1.743-1.168c-2.039-0.26-4.924,1.949-7.015,4.156
			c-0.941,0.182-4.026-1.031-4.746-1.658c-1.602-2.312-3.538-1.868-4.472-1.649c0,0-0.445,0.085-0.497,0.093
			c-0.007-0.025-0.111-0.141-0.259-0.404c-1.631-2.877-4.13-4.542-6.859-4.564c-2.329-0.021-4.501,1.184-5.658,3.148
			c-1.52,2.569-1.29,6.195,0.571,8.816c1.691,2.393,4.338,3.43,7.26,2.852c1.765-0.348,4.382-0.385,5.762,0.223
			c1.58,0.701,1.765,1.312,1.817,1.934c0.452,4.791,2.551,5.539,3.433,5.636c0.579,0.067,2.521,0.03,3.508-3.019
			c0.556-1.705,2.106-3.688,2.744-3.742c0.363-0.033,1.165,0.233,1.936,0.492c1.861,0.625,4.412,1.486,7.927,1.085
			c6.859-0.778,8.068,0.022,9.774,2.521c1.083,1.587,3.062,0.838,4.983,0.111c0.408-0.155,0.957-0.356,1.446-0.512
			c-0.134,0.912-0.223,1.75-0.223,2.447c0,2.974,1.112,4.138,2.195,4.561c1.476,0.571,3.174-0.192,4.234-1.905l0.49-0.72
			c0.875-1.29,2.351-3.44,3.285-5.614c0.904-2.096,2.284-4.031,6.266-4.031c8.283,0,13.748-0.512,21.319-10.561L138.278,61.56z
			 M104.99,58.846c-0.808-0.564-1.772-1.112-2.84-1.605l1.009-0.504c2.529-1.316,3.967-1.995,5.547-1.71
			c-1.891,1.091-2.877,2.718-3.182,4.201C105.346,59.102,105.175,58.972,104.99,58.846z M105.902,69.758
			c-1.068,0.896-2.195,1.201-3.092,0.83c-0.504-0.211-0.853-0.615-0.89-1.038c0-0.022,0-0.044,0-0.066
			c0-0.586,0.615-1.067,0.994-1.306c0.438-0.273,1.097-0.463,1.728-0.645c0.831-0.241,2.173-0.639,3.041-1.584
			C107.637,67.314,107.4,68.493,105.902,69.758z M112.153,60.317c-0.327,0.649-1.105,1.646-2.625,1.094
			c-0.601-0.222-0.704-0.767-0.704-1.127c0-0.077,0.007-0.148,0.007-0.2c0.111-1.016,1.105-2.27,3.359-2.707
			c0.215,0.453,0.326,0.935,0.326,1.406C112.517,59.328,112.383,59.857,112.153,60.317z M84.871,50.781
			c-0.052,0.248-0.17,0.574-0.697,0.9c-1.32,0.816-2.61,0.59-3.255,0.041c-0.512-0.441-0.616-1.053-0.312-1.775
			c0.333-0.79,1.09-1.398,1.92-1.547c0.512-0.096,1.239-0.199,1.936,0.538l0.097,0.093c0.304,0.441,0.348,0.9,0.333,1.445
			C84.894,50.607,84.886,50.707,84.871,50.781z M87.371,46.699c-0.045-0.074-0.097-0.141-0.156-0.208
			c-0.423-0.704-0.927-1.438-1.513-2.231c-1.631-2.222-4.167-3.627-6.948-3.857c-2.573-0.211-5.072,0.605-6.696,2.178
			c-2.766,2.684-3.826,6.295-3.003,10.158c0.512,2.373,1.743,4.457,3.434,6.082c-0.689-0.286-1.409-0.69-2.262-1.262
			c-6.459-4.285-11.939-5.332-17.79-3.381c-6.059,2.021-10.092,9.725-8.995,17.174c0.756,5.08,2.403,9.75,6.044,12.323
			c2.499,1.765,5.287,2.417,8.068,1.868c4.242-0.83,7.431,0.705,9.537,1.766c2.625,1.305,5.347,2.395,10.945-0.297l2.039-1.008
			c4.242-2.137,6.585-3.309,12.54-1.609c4.731,1.356,5.443,2.973,5.829,4.79c0.163,0.741,0,1.424-0.423,1.847
			c-0.222,0.207-0.475,0.304-0.682,0.252c-3.352-0.809-5.287,0.838-5.925,2.484c-0.793,2.031,0.067,4.441,1.943,5.48
			c0.935,0.519,3.686,2.031,3.804,3.625c0.074,1.039-1.075,2.144-2.046,2.885c-2.077,1.58-4.042,2.032-5.139,1.188
			c-1.038-0.809-1.208-2.588-0.43-4.428c1.09-2.58,0.512-4.197-0.17-5.094c-0.919-1.217-2.514-1.78-4.375-1.543
			c-2.544,0.312-4.791,1.957-5.725,4.182c-1.357,3.219,0.148,7.053,1.594,10.761c1.076,2.751,2.188,5.591,1.854,7.608
			c-0.163,0.971-1.312,1.395-1.98,1.557c-1.995,0.482-4.479-0.096-5.332-1.223c-0.163-0.223-0.653-0.883,0.23-2.41
			c1.809-3.107,2.402-6.021,1.668-8.194c-0.453-1.35-1.395-2.351-2.707-2.899c-1.49-0.623-3.129-0.504-4.738,0.341
			c-0.534,0.274-1.053,0.652-1.55,1.075c-0.022-3.781-0.964-6.719-2.811-8.543c-1.698-1.684-4.049-2.232-6.615-1.557
			c-3.663,0.971-6.192,4.827-8.424,8.23c-1.372,2.1-3.159,4.924-4.279,5.117c-0.4,0.066-0.475-0.193-0.475-0.193
			c-0.4-0.549,0.015-3.529,0.26-5.309c0.608-4.331,1.291-9.24-1.928-11.68c-1.46-1.105-2.951-1.527-4.427-1.254
			c-3.07,0.564-5.125,3.863-7.497,7.676l-0.667,1.068c-1.721,2.729-3.878,3.596-6.607,2.654c-4.791-1.661-8.817-7.891-8.439-11.502
			c0.356-3.314,3.189-3.989,9.128-4.643c2.27-0.252,4.613-0.504,6.593-1.193c2.632-0.912,4.568-2.67,5.443-4.953
			c0.779-2.025,0.63-4.285-0.408-6.184c-1.32-2.398-3.271-4.393-5.628-5.891l0.015-0.026c-2.402-1.491-3.1-3.174-2.729-4.108
			c0.4-1.005,2.292-1.795,5.502-1.149c4.865,0.972,6.622-0.427,7.245-1.772c1.031-2.243-0.645-5.172-4.85-8.477
			c-0.497-0.389-1.098-0.975-1.135-1.541c-0.06-0.82,0.964-1.892,1.646-2.596l1.357-1.238c1.936-1.609,2.766-2.781,2.61-7.268
			c-0.111-3.193-1.224-7.008-2.307-10.697c-0.934-3.188-1.898-6.484-2.143-9.166c-0.059-0.663-0.029-1.527,0.416-1.924
			c0.296-0.26,1.312-0.782,4.293-0.093c3.878,0.897,10.945,3.793,14.104,6.893c3.248,3.185,5.554,7.123,5.606,8.417
			c-0.578-0.237-1.505-0.809-2.172-1.23c-1.898-1.191-4.049-2.544-6.155-2.218c-2.692,0.423-5.057,5.042-4.531,8.824
			c0.304,2.14,1.995,6.985,11.175,5.837c5.109-0.646,10.107-4.672,13.037-10.512c0.022-0.041,0.044-0.086,0.059-0.131
			c1.335,1.083,3.182,1.283,4.954,0.527c2.781-1.184,4.613-4.29,4.909-8.312c0.044-0.68,0.312-1.023,0.949-1.231
			c1.832-0.597,5.072,0.519,5.917,1.509c1.32,1.561,0.816,3.415-0.178,6.292c-0.957,2.777-2.41,6.975,2.173,9.122
			c1.283,0.6,2.751,0.629,4.227,0.081c3.359-1.257,6.785-5.483,9.633-11.902c0.816-1.851,1.787-2.722,2.877-2.588
			c2.655,0.334,6.014,5.165,6.585,8.521c0.304,1.82-0.037,2.258-0.074,2.303c-0.341,0.371-2.002,0.244-3.107,0.163
			c-1.817-0.138-3.878-0.293-5.673,0.526c-2.358,1.086-3.382,4.03-2.277,6.566c0.949,2.173,3.641,4.049,8.113,2.191
			c2.113-0.875,3.7-1.176,5.102,0.045c0.333,0.293,0.919,1.119,0.727,2.146c-0.237,1.268-1.565,2.469-3.774,3.448
			c-0.237-0.212-0.49-0.415-0.771-0.601c-4.494-2.996-7.504-1.432-11.309,0.553l-2.803,1.404
			C96.039,56.402,90.997,52.705,87.371,46.699z"/>
		<g>
				<path d="M248.48,106.678c-2.098-1.038-3.707-1.364-3.945-5.962V44.374l0.016,0.093c0-2.852,1.001-4.768,3.879-5.977
					c0.459-0.193,0.281-0.895-0.356-0.797c-1.987,0.307-4.057,0.27-6.496,0.285c-2.44-0.016-4.509,0.021-6.503-0.285
					c-0.631-0.098-0.809,0.604-0.35,0.797c2.878,1.209,3.879,3.125,3.879,5.977v54.996l0,0c0,5.813-1.654,6.088-3.93,7.215
					c-0.639,0.312-0.579,0.949,0.488,0.823c1.646-0.186,3.264-0.186,6.408-0.186h0.014c3.145,0,4.754,0,6.408,0.186
					C249.06,107.627,249.111,106.989,248.48,106.678z"/>
				<path d="M295.059,40.025V48h-0.676c-2.795-7.219-8.572-9.206-14.453-8.961c-7.059,0.289-11.427,5.328-11.76,10.203
					c-0.475,6.875,3.352,11.075,15.061,19.732c12.266,9.079,14.779,12.876,14.779,20.788c0,7.379-5.814,17.79-18.918,17.79
					c-5.657,0-12.939-2.01-16.803-2.351V93.99h0.815c0.579,6.443,5.287,11.07,15.987,11.07c10.086,0,13.949-7.919,13.608-13.006
					c-0.415-6.348-2.796-9.292-12.881-16.91c-11.242-8.498-16.122-13.077-16.122-22.543c0-9.577,8.506-15.584,16.232-15.584
					C288.562,37.018,291.588,39.217,295.059,40.025z"/>
				<path d="M357.689,37.414c-3.521,0-13.607,0.279-18.138,0.33H327.36c-4.538-0.051-14.616-0.33-18.146-0.33
					c-3.53,0-4.287,1.402-5.422,6.949c-0.185,0.893,0.394,1.064,0.787,0.334c0.875-1.632,1.891-3.523,7.178-3.523h17.612
					c0.548,0.945,0.786,2.069,0.786,3.404v56.449c-0.274,4.404-1.877,4.738-4.005,5.762c-0.652,0.312-0.593,0.949,0.505,0.823
					c1.697-0.186,3.359-0.186,6.607-0.186h0.014c3.248,0,4.917,0,6.615,0.186c1.105,0.126,1.156-0.512,0.504-0.823
					c-2.343-1.127-4.101-1.401-4.101-7.215h-0.015V44.488l0.015,0.09c0-1.335,0.237-2.459,0.786-3.404h18.732
					c5.294,0,5.257,1.892,6.14,3.523c0.386,0.73,0.845,0.57,0.778-0.334C362.34,39.153,361.227,37.414,357.689,37.414z"/>
				<path d="M224.848,72.553c0,21.57-16.782,36.298-36.292,36.298c-21.483,0-36.292-16.247-36.292-36.298
					c0-21.953,16.248-36.295,36.292-36.295C208.6,36.258,224.848,51.438,224.848,72.553z M186.709,38.453
					c-16.24,0-28.669,13.459-27.549,34.052c1.023,18.808,13.837,34.054,31.242,34.054c13.971,0,28.646-13.814,27.549-34.054
					C216.876,52.698,204.373,38.453,186.709,38.453z"/>
		</g>
</g>
</svg>

