<?xml version="1.0" encoding="utf-8"?>
<!-- Generator: Adobe Illustrator 16.0.4, SVG Export Plug-In . SVG Version: 6.00 Build 0)  -->
<!DOCTYPE svg PUBLIC "-//W3C//DTD SVG 1.1//EN" "http://www.w3.org/Graphics/SVG/1.1/DTD/svg11.dtd">
<svg version="1.1" id="Layer_1" xmlns="http://www.w3.org/2000/svg" xmlns:xlink="http://www.w3.org/1999/xlink"
	 viewBox="0 0 1630 140"
	 xml:space="preserve" fill='#fff'>
<g>
	<g>
		<path fill="#C41425" d="M138.278,61.56c-6.629,8.791-10.938,9.199-18.598,9.199c-4.561,0-7.638,1.995-9.403,6.094
			c-0.808,1.868-2.165,3.856-2.974,5.042l-0.563,0.854c-0.022,0.021-0.037,0.029-0.052,0.052c-0.037-0.223-0.067-0.497-0.067-0.897
			c0-0.645,0.074-1.527,0.304-2.736c0.052-0.274,0.082-0.533,0.082-0.771c0-1.023-0.453-1.639-0.868-1.988
			c-1.372-1.154-3.404-0.391-5.361,0.35c-0.453,0.171-1.061,0.4-1.491,0.527c-2.848-3.691-6.118-4.078-12.443-3.357
			c-2.758,0.311-4.805-0.375-6.452-0.928c-1.208-0.408-2.254-0.73-3.337-0.66c-3.715,0.241-5.376,6.947-5.636,5.968
			c-0.126-0.407-0.259-0.941-0.333-1.757c-0.297-3.169-2.959-4.352-3.834-4.737c-2.455-1.09-6.066-0.797-7.816-0.452
			c-2.002,0.396-3.174-0.582-3.804-1.476c-1.068-1.505-1.246-3.7-0.423-5.103c0.542-0.919,1.572-1.482,2.692-1.472
			c1.498,0.015,2.885,1.021,3.916,2.833c1.505,2.658,3.53,2.184,4.509,1.954c0.192-0.041,0.482-0.111,0.571-0.097
			c0,0.004,0.133,0.089,0.356,0.419c0.868,1.327,4.642,2.878,6.822,3.066c1.342,0.111,2.358-0.196,3.033-0.923
			c1.802-1.939,3.263-2.822,3.959-3.111c1.75,2.588,4.657,4.127,8.788,4.476c4.205,0.345,7.126-1.81,7.453-5.491
			c0.126-1.439-0.312-2.773-1.253-3.849c-1.253-1.428-3.345-2.307-5.74-2.414l-1.861,0.204c-0.089,0.015-0.215,0.033-0.319,0.052
			c0.601-0.649,1.698-1.235,3.856-1.646c3.544-0.68,8.625,0.9,11.301,2.754c1.209,0.842,1.721,1.568,1.787,1.973l0.015,0.268
			c-0.126,0.104-0.927,0.334-1.402,0.471c-0.823,0.236-1.75,0.508-2.595,1.041c-1.787,1.124-2.729,2.785-2.581,4.551
			c0.141,1.705,1.29,3.199,2.988,3.904c2.084,0.863,4.546,0.352,6.6-1.373c2.996-2.528,3.011-5.234,3.018-7.211l-0.082-0.241
			c1.735-0.226,3.263-1.286,4.16-3.056c0.778-1.531,0.979-3.459,0.393-5.238c3.7-1.795,4.887-4.027,5.198-5.688
			c0.445-2.381-0.712-4.369-1.839-5.354c-3.285-2.858-7.052-1.29-8.661-0.62c-0.89,0.367-3.026,1.064-3.671-0.407
			c-0.312-0.72-0.133-1.769,0.571-2.091c0.994-0.457,2.521-0.338,3.989-0.227c2.18,0.163,4.427,0.334,5.888-1.268
			c1.023-1.116,1.32-2.811,0.919-5.173c-0.712-4.227-4.776-10.745-9.529-11.342c-1.55-0.192-4.45,0.145-6.43,4.59
			c-2.395,5.409-5.272,9.181-7.705,10.085c-0.608,0.23-1.127,0.238-1.58,0.026c-1.542-0.724-1.594-1.413-0.386-4.913
			c0.942-2.725,2.232-6.459-0.452-9.617c-1.713-2.01-6.37-3.598-9.581-2.544c-1.95,0.638-3.151,2.181-3.3,4.234
			c-0.23,3.2-1.617,4.894-2.833,5.413c-0.586,0.248-1.149,0.234-1.476-0.037c-0.415-0.352-0.526-1.172-0.274-2.202
			C76.87,21.093,76.299,9.811,67.927,0l-2.595,2.217c9.084,10.652,7.905,23.211,4.13,30.73c-2.899,5.783-7.423,8.275-10.412,8.65
			c-2.899,0.366-6.511,0.24-7.252-2.422c-0.652-2.321,0.957-5.18,1.654-5.487c0.756-0.111,2.469,0.968,3.723,1.75
			c1.906,1.201,3.7,2.328,5.406,1.694c0.616-0.23,1.431-0.782,1.839-2.129c1.335-4.367-6.392-12.009-6.466-12.083
			c-3.819-3.741-11.494-6.804-15.728-7.786c-3.367-0.779-5.762-0.497-7.305,0.853c-1.075,0.931-1.616,2.272-1.616,3.985
			c0,0.264,0.015,0.538,0.044,0.82c0.267,3.01,1.283,6.47,2.262,9.814c1.016,3.488,2.069,7.096,2.165,9.858
			c0.015,0.408,0.022,0.768,0.022,1.091c0,2.269-0.371,2.576-1.401,3.434l-1.632,1.497c-0.986,1.023-2.603,2.71-2.603,4.891
			c0,0.101,0,0.204,0.007,0.308c0.104,1.461,0.919,2.803,2.439,3.994c2.944,2.312,3.723,3.807,3.812,4.312
			c-0.274,0.111-1.179,0.349-3.434-0.104c-5.51-1.101-8.439,0.957-9.344,3.248c-0.371,0.939-0.43,1.929-0.215,2.915
			c-0.044-0.007-0.082-0.022-0.126-0.03C19.963,64.934,11.235,65.505,0,74.377l2.114,2.684c10.211-8.062,17.879-8.635,22.514-7.692
			c4.13,0.838,7.697,3.341,9.536,6.692c0.556,1.014,0.63,2.223,0.215,3.312c-0.512,1.32-1.713,2.366-3.374,2.952
			c-1.617,0.556-3.671,0.786-5.844,1.023c-5.117,0.563-11.479,1.261-12.154,7.683c-0.571,5.436,4.843,13.051,10.723,15.083
			c4.197,1.461,8.068-0.022,10.612-4.063l0.675-1.076c1.787-2.869,3.633-5.828,5.22-6.125c0.186-0.037,0.742-0.133,1.743,0.623
			c1.617,1.224,1.061,5.243,0.608,8.477c-0.497,3.545-0.919,6.6,0.793,8.268c0.586,0.564,1.653,1.172,3.448,0.868
			c2.588-0.444,4.397-3.204,6.496-6.399c1.891-2.893,4.042-6.17,6.437-6.801c1.401-0.371,2.499-0.148,3.344,0.683
			c1.632,1.609,2.677,6.11,0.72,13.897l0,0c-0.008,0.021-0.015,0.044-0.015,0.059c0,0.008,0,0.015,0,0.015h-0.007
			c-2.269,11.034,0.979,19.593,9.64,25.436l1.913-2.833c-7.512-5.064-10.189-12.229-8.209-21.905
			c0.616-2.848,2.425-5.628,4.294-6.607c1.045-0.541,1.646-0.296,1.839-0.215c0.408,0.171,0.645,0.431,0.786,0.838
			c0.312,0.919,0.111,2.817-1.379,5.392c-1.757,3.025-0.764,5.16-0.015,6.162c1.913,2.559,5.999,3.195,8.869,2.499
			c2.536-0.616,4.19-2.188,4.546-4.309c0.489-2.944-0.793-6.236-2.039-9.418c-1.202-3.069-2.44-6.243-1.624-8.194
			c0.534-1.26,1.928-1.979,2.996-2.113c0.712-0.089,1.127,0.082,1.224,0.215c0.104,0.141,0.186,0.668-0.252,1.699
			c-1.387,3.292-0.793,6.688,1.483,8.461c2.417,1.868,5.896,1.431,9.307-1.172c2.395-1.824,3.537-3.797,3.381-5.852
			c-0.252-3.434-4.079-5.554-5.524-6.348c-0.467-0.26-0.601-0.867-0.445-1.268c0.282-0.712,1.446-0.52,1.936-0.4
			c1.357,0.326,2.803-0.09,3.871-1.127c1.275-1.238,1.787-3.115,1.387-5.006c-0.593-2.773-2.002-5.576-8.231-7.363
			c-7.245-2.069-10.671-0.342-15.017,1.838l-1.98,0.986c-4.094,1.966-5.628,1.469-7.95,0.312c-2.284-1.143-6.333-3.107-11.709-2.055
			c-1.869,0.363-3.701-0.074-5.443-1.305c-2.921-2.062-4.012-5.834-4.634-10.035c-0.942-6.385,2.699-12.099,6.696-13.43
			c4.82-1.605,9.248-0.716,14.816,2.984c4.146,2.752,6.541,2.604,11.175,2.17l0.326-0.034c0.942-0.085,1.632-0.915,1.542-1.857
			c-0.089-0.938-0.919-1.632-1.861-1.542l-0.326,0.029c-0.208,0.019-0.4,0.037-0.601,0.056c-3.3-0.337-5.532-4.108-6.192-7.204
			c-0.408-1.891-0.378-4.639,2.039-6.989c0.912-0.886,2.455-1.356,4.034-1.224c0.793,0.062,2.099,0.326,3.307,1.268
			c-1.898,0.396-3.552,1.729-4.315,3.534c-0.297,0.704-0.445,1.416-0.445,2.106c0,1.367,0.579,2.654,1.676,3.596
			c1.935,1.661,4.864,1.769,7.282,0.271c0.749-0.468,1.261-1.08,1.646-1.78c0.89,1.042,1.832,1.991,2.803,2.817
			c-2.396,0.571-5.228,1.77-6.207,4.947c-0.408,1.326,0.089,2.164,0.423,2.543c1.06,1.205,2.833,0.9,4.39,0.631l1.135-0.156
			c1.417-0.204,2.632,0.389,3.315,1.25c0.312,0.393,0.467,0.789,0.422,1.301c-0.156,1.772-1.424,2.573-3.767,2.381
			c-3.352-0.282-5.517-1.402-6.615-3.43c-0.348-0.646-0.986-1.072-1.743-1.168c-2.039-0.26-4.924,1.949-7.015,4.156
			c-0.941,0.182-4.026-1.031-4.746-1.658c-1.602-2.312-3.538-1.868-4.472-1.649c0,0-0.445,0.085-0.497,0.093
			c-0.007-0.025-0.111-0.141-0.259-0.404c-1.631-2.877-4.13-4.542-6.859-4.564c-2.329-0.021-4.501,1.184-5.658,3.148
			c-1.52,2.569-1.29,6.195,0.571,8.816c1.691,2.393,4.338,3.43,7.26,2.852c1.765-0.348,4.382-0.385,5.762,0.223
			c1.58,0.701,1.765,1.312,1.817,1.934c0.452,4.791,2.551,5.539,3.433,5.636c0.579,0.067,2.521,0.03,3.508-3.019
			c0.556-1.705,2.106-3.688,2.744-3.742c0.363-0.033,1.165,0.233,1.936,0.492c1.861,0.625,4.412,1.486,7.927,1.085
			c6.859-0.778,8.068,0.022,9.774,2.521c1.083,1.587,3.062,0.838,4.983,0.111c0.408-0.155,0.957-0.356,1.446-0.512
			c-0.134,0.912-0.223,1.75-0.223,2.447c0,2.974,1.112,4.138,2.195,4.561c1.476,0.571,3.174-0.192,4.234-1.905l0.49-0.72
			c0.875-1.29,2.351-3.44,3.285-5.614c0.904-2.096,2.284-4.031,6.266-4.031c8.283,0,13.748-0.512,21.319-10.561L138.278,61.56z
			 M104.99,58.846c-0.808-0.564-1.772-1.112-2.84-1.605l1.009-0.504c2.529-1.316,3.967-1.995,5.547-1.71
			c-1.891,1.091-2.877,2.718-3.182,4.201C105.346,59.102,105.175,58.972,104.99,58.846z M105.902,69.758
			c-1.068,0.896-2.195,1.201-3.092,0.83c-0.504-0.211-0.853-0.615-0.89-1.038c0-0.022,0-0.044,0-0.066
			c0-0.586,0.615-1.067,0.994-1.306c0.438-0.273,1.097-0.463,1.728-0.645c0.831-0.241,2.173-0.639,3.041-1.584
			C107.637,67.314,107.4,68.493,105.902,69.758z M112.153,60.317c-0.327,0.649-1.105,1.646-2.625,1.094
			c-0.601-0.222-0.704-0.767-0.704-1.127c0-0.077,0.007-0.148,0.007-0.2c0.111-1.016,1.105-2.27,3.359-2.707
			c0.215,0.453,0.326,0.935,0.326,1.406C112.517,59.328,112.383,59.857,112.153,60.317z M84.871,50.781
			c-0.052,0.248-0.17,0.574-0.697,0.9c-1.32,0.816-2.61,0.59-3.255,0.041c-0.512-0.441-0.616-1.053-0.312-1.775
			c0.333-0.79,1.09-1.398,1.92-1.547c0.512-0.096,1.239-0.199,1.936,0.538l0.097,0.093c0.304,0.441,0.348,0.9,0.333,1.445
			C84.894,50.607,84.886,50.707,84.871,50.781z M87.371,46.699c-0.045-0.074-0.097-0.141-0.156-0.208
			c-0.423-0.704-0.927-1.438-1.513-2.231c-1.631-2.222-4.167-3.627-6.948-3.857c-2.573-0.211-5.072,0.605-6.696,2.178
			c-2.766,2.684-3.826,6.295-3.003,10.158c0.512,2.373,1.743,4.457,3.434,6.082c-0.689-0.286-1.409-0.69-2.262-1.262
			c-6.459-4.285-11.939-5.332-17.79-3.381c-6.059,2.021-10.092,9.725-8.995,17.174c0.756,5.08,2.403,9.75,6.044,12.323
			c2.499,1.765,5.287,2.417,8.068,1.868c4.242-0.83,7.431,0.705,9.537,1.766c2.625,1.305,5.347,2.395,10.945-0.297l2.039-1.008
			c4.242-2.137,6.585-3.309,12.54-1.609c4.731,1.356,5.443,2.973,5.829,4.79c0.163,0.741,0,1.424-0.423,1.847
			c-0.222,0.207-0.475,0.304-0.682,0.252c-3.352-0.809-5.287,0.838-5.925,2.484c-0.793,2.031,0.067,4.441,1.943,5.48
			c0.935,0.519,3.686,2.031,3.804,3.625c0.074,1.039-1.075,2.144-2.046,2.885c-2.077,1.58-4.042,2.032-5.139,1.188
			c-1.038-0.809-1.208-2.588-0.43-4.428c1.09-2.58,0.512-4.197-0.17-5.094c-0.919-1.217-2.514-1.78-4.375-1.543
			c-2.544,0.312-4.791,1.957-5.725,4.182c-1.357,3.219,0.148,7.053,1.594,10.761c1.076,2.751,2.188,5.591,1.854,7.608
			c-0.163,0.971-1.312,1.395-1.98,1.557c-1.995,0.482-4.479-0.096-5.332-1.223c-0.163-0.223-0.653-0.883,0.23-2.41
			c1.809-3.107,2.402-6.021,1.668-8.194c-0.453-1.35-1.395-2.351-2.707-2.899c-1.49-0.623-3.129-0.504-4.738,0.341
			c-0.534,0.274-1.053,0.652-1.55,1.075c-0.022-3.781-0.964-6.719-2.811-8.543c-1.698-1.684-4.049-2.232-6.615-1.557
			c-3.663,0.971-6.192,4.827-8.424,8.23c-1.372,2.1-3.159,4.924-4.279,5.117c-0.4,0.066-0.475-0.193-0.475-0.193
			c-0.4-0.549,0.015-3.529,0.26-5.309c0.608-4.331,1.291-9.24-1.928-11.68c-1.46-1.105-2.951-1.527-4.427-1.254
			c-3.07,0.564-5.125,3.863-7.497,7.676l-0.667,1.068c-1.721,2.729-3.878,3.596-6.607,2.654c-4.791-1.661-8.817-7.891-8.439-11.502
			c0.356-3.314,3.189-3.989,9.128-4.643c2.27-0.252,4.613-0.504,6.593-1.193c2.632-0.912,4.568-2.67,5.443-4.953
			c0.779-2.025,0.63-4.285-0.408-6.184c-1.32-2.398-3.271-4.393-5.628-5.891l0.015-0.026c-2.402-1.491-3.1-3.174-2.729-4.108
			c0.4-1.005,2.292-1.795,5.502-1.149c4.865,0.972,6.622-0.427,7.245-1.772c1.031-2.243-0.645-5.172-4.85-8.477
			c-0.497-0.389-1.098-0.975-1.135-1.541c-0.06-0.82,0.964-1.892,1.646-2.596l1.357-1.238c1.936-1.609,2.766-2.781,2.61-7.268
			c-0.111-3.193-1.224-7.008-2.307-10.697c-0.934-3.188-1.898-6.484-2.143-9.166c-0.059-0.663-0.029-1.527,0.416-1.924
			c0.296-0.26,1.312-0.782,4.293-0.093c3.878,0.897,10.945,3.793,14.104,6.893c3.248,3.185,5.554,7.123,5.606,8.417
			c-0.578-0.237-1.505-0.809-2.172-1.23c-1.898-1.191-4.049-2.544-6.155-2.218c-2.692,0.423-5.057,5.042-4.531,8.824
			c0.304,2.14,1.995,6.985,11.175,5.837c5.109-0.646,10.107-4.672,13.037-10.512c0.022-0.041,0.044-0.086,0.059-0.131
			c1.335,1.083,3.182,1.283,4.954,0.527c2.781-1.184,4.613-4.29,4.909-8.312c0.044-0.68,0.312-1.023,0.949-1.231
			c1.832-0.597,5.072,0.519,5.917,1.509c1.32,1.561,0.816,3.415-0.178,6.292c-0.957,2.777-2.41,6.975,2.173,9.122
			c1.283,0.6,2.751,0.629,4.227,0.081c3.359-1.257,6.785-5.483,9.633-11.902c0.816-1.851,1.787-2.722,2.877-2.588
			c2.655,0.334,6.014,5.165,6.585,8.521c0.304,1.82-0.037,2.258-0.074,2.303c-0.341,0.371-2.002,0.244-3.107,0.163
			c-1.817-0.138-3.878-0.293-5.673,0.526c-2.358,1.086-3.382,4.03-2.277,6.566c0.949,2.173,3.641,4.049,8.113,2.191
			c2.113-0.875,3.7-1.176,5.102,0.045c0.333,0.293,0.919,1.119,0.727,2.146c-0.237,1.268-1.565,2.469-3.774,3.448
			c-0.237-0.212-0.49-0.415-0.771-0.601c-4.494-2.996-7.504-1.432-11.309,0.553l-2.803,1.404
			C96.039,56.402,90.997,52.705,87.371,46.699z"/>
		<g>
			<g>
				<path d="M248.48,106.678c-2.098-1.038-3.707-1.364-3.945-5.962V44.374l0.016,0.093c0-2.852,1.001-4.768,3.879-5.977
					c0.459-0.193,0.281-0.895-0.356-0.797c-1.987,0.307-4.057,0.27-6.496,0.285c-2.44-0.016-4.509,0.021-6.503-0.285
					c-0.631-0.098-0.809,0.604-0.35,0.797c2.878,1.209,3.879,3.125,3.879,5.977v54.996l0,0c0,5.813-1.654,6.088-3.93,7.215
					c-0.639,0.312-0.579,0.949,0.488,0.823c1.646-0.186,3.264-0.186,6.408-0.186h0.014c3.145,0,4.754,0,6.408,0.186
					C249.06,107.627,249.111,106.989,248.48,106.678z"/>
				<path d="M295.059,40.025V48h-0.676c-2.795-7.219-8.572-9.206-14.453-8.961c-7.059,0.289-11.427,5.328-11.76,10.203
					c-0.475,6.875,3.352,11.075,15.061,19.732c12.266,9.079,14.779,12.876,14.779,20.788c0,7.379-5.814,17.79-18.918,17.79
					c-5.657,0-12.939-2.01-16.803-2.351V93.99h0.815c0.579,6.443,5.287,11.07,15.987,11.07c10.086,0,13.949-7.919,13.608-13.006
					c-0.415-6.348-2.796-9.292-12.881-16.91c-11.242-8.498-16.122-13.077-16.122-22.543c0-9.577,8.506-15.584,16.232-15.584
					C288.562,37.018,291.588,39.217,295.059,40.025z"/>
				<path d="M357.689,37.414c-3.521,0-13.607,0.279-18.138,0.33H327.36c-4.538-0.051-14.616-0.33-18.146-0.33
					c-3.53,0-4.287,1.402-5.422,6.949c-0.185,0.893,0.394,1.064,0.787,0.334c0.875-1.632,1.891-3.523,7.178-3.523h17.612
					c0.548,0.945,0.786,2.069,0.786,3.404v56.449c-0.274,4.404-1.877,4.738-4.005,5.762c-0.652,0.312-0.593,0.949,0.505,0.823
					c1.697-0.186,3.359-0.186,6.607-0.186h0.014c3.248,0,4.917,0,6.615,0.186c1.105,0.126,1.156-0.512,0.504-0.823
					c-2.343-1.127-4.101-1.401-4.101-7.215h-0.015V44.488l0.015,0.09c0-1.335,0.237-2.459,0.786-3.404h18.732
					c5.294,0,5.257,1.892,6.14,3.523c0.386,0.73,0.845,0.57,0.778-0.334C362.34,39.153,361.227,37.414,357.689,37.414z"/>
				<path d="M224.848,72.553c0,21.57-16.782,36.298-36.292,36.298c-21.483,0-36.292-16.247-36.292-36.298
					c0-21.953,16.248-36.295,36.292-36.295C208.6,36.258,224.848,51.438,224.848,72.553z M186.709,38.453
					c-16.24,0-28.669,13.459-27.549,34.052c1.023,18.808,13.837,34.054,31.242,34.054c13.971,0,28.646-13.814,27.549-34.054
					C216.876,52.698,204.373,38.453,186.709,38.453z"/>
			</g>
		</g>
	</g>
	<g>
		<g>
			<g>
				<path d="M395.746,84.201c4.168,0.526,5.503,2.284,5.503,3.508c0,0.667-0.423,1.156-0.979,1.156
					c-0.244,0-0.488-0.074-0.771-0.244c-0.63-1.477-2.351-3.189-3.931-4.034L395.746,84.201z M397.607,97.416
					c0.416,0,0.52,0,0.838-0.734c0.104-0.141,0.631-1.261,6.941-15.632l0.66,0.178c-1.572,4.486-4.761,12.896-5.287,14.579
					c-0.318,1.082-0.564,2.136-0.564,3.048c0.037,1.364,0.771,2.944,0.771,5.429c0,0.808,0,2.906-1.713,2.906
					c-0.6,0-0.912-0.66-0.949-1.75c0.141-1.261,0.208-2.418,0.208-3.367c0-3.322-0.63-3.707-2.484-3.885v-0.771
					c1.194,0,1.579-0.037,1.579-0.037V97.416z M397.186,75.094c4.242,0.7,5.605,2.59,5.605,3.85c0,0.705-0.422,1.231-1.016,1.231
					c-0.244,0-0.526-0.074-0.809-0.282c-0.593-1.579-2.38-3.434-3.959-4.414L397.186,75.094z M425.187,80.561l2.767,1.994
					c-0.245,0.282-0.809,0.564-1.506,0.705v13.948c-0.037,0.104-0.705,0.697-1.891,0.697v-2.736h-6.764v11.249
					c0,0.141-0.244,0.809-1.861,0.809V95.169h-6.659v2.21c0,0.037-0.245,0.704-1.891,0.704V80.805l2.106,1.016h6.443v-7.006
					l3.752,0.312c-0.074,0.63-0.525,0.949-1.891,1.053v5.641h6.407L425.187,80.561z M409.272,94.294h6.659V82.695h-6.659V94.294z
					 M417.793,94.294h6.764V82.695h-6.764V94.294z"/>
				<path d="M434.96,80.561c1.054,0.311,1.929,0.697,2.559,1.119c0.845-1.891,1.892-4.523,2.699-6.865l3.085,1.191
					c-0.141,0.385-0.423,0.557-1.224,0.49c-1.157,1.928-2.595,4.102-3.856,5.674c0.979,0.845,1.365,1.683,1.365,2.35
					c0,0.697-0.423,1.194-0.949,1.194c-0.245,0-0.49-0.111-0.771-0.319c-0.312-1.505-1.816-3.433-3.189-4.486L434.96,80.561z
					 M439.691,95.488c-0.066,0.422-0.312,0.63-1.082,0.63c-0.771,3.019-1.966,6.206-3.33,8.128l-0.602-0.275
					c0.912-2.172,1.721-5.783,2.174-9.113L439.691,95.488z M447.263,80.315c-0.142,0.245-0.386,0.349-0.771,0.349
					c-0.178,0-0.386,0-0.63-0.066c-1.721,2.766-4.486,6.621-6.941,9.633c1.787-0.066,3.819-0.141,5.926-0.245
					c-0.49-1.017-1.12-1.995-1.721-2.736l0.385-0.245c3.16,1.758,4.176,3.686,4.176,4.947c0,0.838-0.46,1.363-0.986,1.363
					c-0.274,0-0.557-0.104-0.838-0.385c-0.104-0.668-0.349-1.439-0.668-2.21l-2.803,0.46v15.35c0,0-0.207,0.66-1.854,0.66V91.49
					l-3.931,0.564c-0.208,0.452-0.526,0.667-0.875,0.734l-0.942-2.455c0.734,0,1.817-0.029,3.152-0.066
					c2.099-3.396,4.656-8.023,6.273-11.391L447.263,80.315z M444.215,94.857c2.484,1.928,3.33,3.818,3.33,5.117
					c0,1.053-0.564,1.713-1.157,1.713c-0.282,0-0.563-0.134-0.846-0.453c0-1.891-0.875-4.553-1.787-6.17L444.215,94.857z
					 M466.498,101.302l0.037,3.159c0.912,0.311,0.979,0.452,0.979,0.734c0,0.912-0.838,1.193-3.077,1.193h-5.473
					c-2.484,0-2.944-0.386-2.944-3.434v-2.773h-5.503v1.298c0,0.074-0.311,0.667-1.854,0.667V89.073l2.031,0.986h5.325v-3.471h-4.62
					v0.942c0,0.037-0.281,0.667-1.898,0.667V76.006l2.069,0.98h10.76l0.949-1.264l2.804,1.961c-0.246,0.281-0.809,0.6-1.543,0.74
					v8.758c0,0.067-0.563,0.734-1.861,0.734v-1.327h-4.798v3.471h5.429l0.912-1.194l2.632,1.854
					c-0.215,0.245-0.741,0.526-1.335,0.63v9.463c0,0.111-0.563,0.741-1.891,0.741v-1.372h-5.747v2.803
					c0,1.543,0.037,1.646,1.083,1.646h5.295c0.311,0,0.666-0.029,0.912-0.273c0.311-0.283,0.771-1.646,1.053-3.056H466.498z
					 M456.021,90.935h-5.503v3.716h5.503V90.935z M450.518,99.307h5.503v-3.781h-5.503V99.307z M456.021,77.861h-4.62v3.471h4.62
					V77.861z M451.4,85.714h4.62v-3.507h-4.62V85.714z M462.68,77.861h-4.798v3.471h4.798V77.861z M457.882,85.714h4.798v-3.507
					h-4.798V85.714z M463.629,90.935h-5.747v3.716h5.747V90.935z M457.882,99.307h5.747v-3.781h-5.747V99.307z"/>
				<path d="M481.923,86.344v4.412c4.101,1.684,5.362,3.783,5.362,5.051c0,0.734-0.387,1.156-0.913,1.156
					c-0.245,0-0.526-0.074-0.808-0.318c-0.49-1.609-2.174-3.855-3.642-5.258v15.105c0,0-0.178,0.697-1.891,0.697V90.756
					c-1.476,3.716-3.575,7.045-6.274,9.849l-0.525-0.489c2.869-3.856,4.871-8.766,6.028-13.771h-5.473l-0.208-0.882h6.452v-6.378
					c-2.106,0.668-4.346,1.299-6.452,1.684l-0.207-0.593c4.101-1.261,9.18-3.612,11.738-5.293l2.588,1.964
					c-0.133,0.178-0.378,0.244-0.697,0.244c-0.281,0-0.593-0.037-0.979-0.178c-1.127,0.496-2.559,1.016-4.101,1.579v6.971h2.136
					l1.401-1.787l2.663,1.898c-0.282,0.556-0.668,0.771-1.609,0.771H481.923z M503.295,92.58l2.943,1.959
					c-0.17,0.496-0.526,0.741-1.223,0.845l-4.977,0.942v10.062c0,0.104-0.244,0.838-1.891,0.838V96.682l-11.079,2.068l-0.415-0.808
					l11.494-2.136V74.814l3.396,0.312c-0.066,0.492-0.423,0.737-1.506,0.879v19.415l2.136-0.386L503.295,92.58z M488.404,87.464
					c5.258,0.697,6.941,2.841,6.941,4.131c0,0.638-0.387,1.09-0.986,1.09c-0.208,0-0.453-0.067-0.734-0.208
					c-0.979-1.579-3.396-3.574-5.361-4.59L488.404,87.464z M489.701,78.143c4.873,1.12,6.415,3.293,6.415,4.627
					c0,0.697-0.423,1.188-0.986,1.188c-0.245,0-0.526-0.104-0.801-0.282c-0.741-1.75-2.981-3.989-4.843-5.184L489.701,78.143z"/>
				<path d="M538.133,96.155l1.609-2.069l3.048,2.173c-0.274,0.489-0.66,0.771-1.676,0.771h-13.318v6.866
					c0,1.721-0.423,2.944-3.649,3.264c0-1.514-1.297-1.824-4.345-1.965v-0.564h5.19c0.66,0,0.875-0.207,0.875-0.771V97.03h-15.068
					l-0.244-0.875h15.312V92.58l1.854,0.142c1.579-1.054,3.648-2.632,4.976-3.894H517.14l-0.282-0.875h16.263l1.364-1.297
					l2.352,2.246c-0.283,0.245-0.734,0.275-1.506,0.312c-1.439,1.156-3.997,2.558-6.207,3.611h0.111
					c-0.037,0.488-0.281,0.696-1.438,0.808v2.521H538.133z M537.154,88.406c0.557-1.016,1.29-2.944,1.787-4.375h-23.626
					c0,2.766-1.714,4.516-3.434,4.516c-0.593,0-1.157-0.244-1.157-0.875c0-0.49,0.424-0.979,0.949-1.224
					c1.439-0.667,2.804-2.491,2.699-4.694l0.631-0.037c0.141,0.527,0.244,0.979,0.281,1.439h16.434
					c1.824-2.352,3.855-5.614,5.05-8.097l3.151,1.577c-0.141,0.245-0.385,0.35-0.771,0.35c-0.178,0-0.348-0.037-0.593-0.074
					c-1.401,1.928-3.611,4.383-5.821,6.244h6.066l1.505-1.514l2.699,2.633c-0.245,0.244-0.667,0.281-1.335,0.349
					c-0.941,1.261-2.729,3.085-4.026,4.063L537.154,88.406z M515.182,75.652c3.819,1.615,5.006,3.714,5.006,5.049
					c0,0.771-0.416,1.327-0.979,1.327c-0.282,0-0.564-0.141-0.838-0.386c-0.356-1.816-2.04-4.309-3.508-5.674L515.182,75.652z
					 M523.939,74.74c3.367,1.756,4.412,3.855,4.412,5.293c0,1.017-0.526,1.721-1.156,1.721c-0.275,0-0.594-0.141-0.875-0.459
					c-0.029-2.069-1.365-4.77-2.766-6.31L523.939,74.74z"/>
				<path d="M576.612,87.605l2.38,2.238c-0.281,0.283-0.63,0.387-1.438,0.424c-1.328,3.922-3.256,7.326-6.133,10.129
					c2.662,2.173,5.962,3.782,9.781,4.836l-0.074,0.348c-0.912,0.066-1.646,0.631-1.995,1.609c-3.648-1.291-6.696-3.115-9.144-5.568
					c-2.914,2.417-6.659,4.277-11.465,5.568l-0.244-0.66c4.42-1.476,7.92-3.508,10.619-6.066c-2.418-2.803-4.139-6.34-5.184-10.655
					h-1.721l-0.244-0.876h7.355V82.17h-8.164l0.489,0.355c-0.274,0.52-0.63,0.764-1.608,0.764h-3.887v8.306l5.221-1.327l0.141,0.593
					l-5.361,2.144v10.93c0,1.684-0.422,2.907-3.121,3.256c0-1.432-0.838-1.854-3.396-1.994v-0.594h3.885
					c0.564,0,0.734-0.178,0.734-0.705V93.738l-3.922,1.468c-0.104,0.423-0.387,0.704-0.734,0.808l-1.231-2.662
					c1.231-0.215,3.329-0.704,5.888-1.297v-8.766h-5.465l-0.244-0.875h5.709v-7.566l3.508,0.279
					c-0.074,0.562-0.281,0.808-1.609,0.982v6.305h1.469l1.364-1.816l2.144,1.542l-0.245-0.882h8.438v-6.376l3.574,0.319
					c-0.029,0.593-0.451,0.805-1.676,0.979v5.078h5.532l1.505-1.929l2.915,2.04c-0.282,0.556-0.667,0.801-1.646,0.801h-8.306v6.762
					h4.168L576.612,87.605z M564.488,89.808c1.156,3.789,3.047,6.94,5.635,9.433c2.426-2.662,4.102-5.784,5.154-9.433H564.488z"/>
				<path d="M609.656,83.326c-0.281,0.526-0.668,0.771-1.609,0.771h-4.909v22.254c0,0.104-0.245,0.771-1.854,0.771V84.098h-5.68
					l-0.104-0.49c-0.178,0.037-0.318,0-0.705-0.037c-0.697,1.299-1.646,2.804-2.766,4.346l1.193,0.46
					c-0.141,0.312-0.488,0.556-1.09,0.66v17.493c-0.029,0.141-0.801,0.66-1.505,0.66h-0.349V90.23
					c-1.261,1.542-2.633,3.018-4.102,4.278l-0.422-0.526c3.048-3.471,5.962-8.625,7.363-12.199l3.048,1.402l-0.037,0.037h5.153
					v-8.341l3.359,0.319c-0.066,0.488-0.385,0.733-1.505,0.838v7.184h2.417l1.402-1.787L609.656,83.326z M586.104,83.541
					c2.595-2.425,5.257-6.104,6.488-8.693l2.907,1.473c-0.178,0.279-0.349,0.421-0.771,0.421c-0.141,0-0.318-0.037-0.563-0.074
					c-1.609,2.247-4.554,5.361-7.638,7.431L586.104,83.541z M599.949,89.178c-0.066,0.422-0.281,0.63-1.156,0.74
					c-0.697,4.554-2.033,9.248-3.924,12.088l-0.63-0.318c1.327-3.012,2.313-8.194,2.699-13.029L599.949,89.178z M605.488,88.621
					c2.729,3.5,3.604,6.659,3.604,8.691c0,1.542-0.488,2.484-1.016,2.484c-0.207,0-0.415-0.142-0.63-0.416
					c-0.142-2.492-0.697-7.289-2.484-10.479L605.488,88.621z M617.961,77.861c-0.281,0.525-0.667,0.771-1.646,0.771H609.9
					c0.215,0.385,0.282,0.733,0.282,1.053c0,0.697-0.386,1.156-0.912,1.156c-0.245,0-0.489-0.074-0.734-0.281
					c-0.282-1.477-1.646-3.293-2.981-4.24l0.282-0.314c1.646,0.453,2.736,1.084,3.396,1.752h4.42l1.468-1.927L617.961,77.861z
					 M615.893,85.188l2.877,1.994c-0.318,0.564-0.667,0.809-1.616,0.809h-2.099v16.121c0,1.646-0.386,2.767-3.152,3.078
					c0-1.646-1.016-1.891-3.439-1.994v-0.527h4.033c0.527,0,0.697-0.104,0.697-0.557V87.99H608.5l-0.246-0.875h6.133L615.893,85.188
					z"/>
				<path d="M655.143,85.357c-0.281,0.527-0.667,0.771-1.683,0.771h-13.771c1.297,6.801,4.976,14.156,15.698,19.17l-0.066,0.422
					c-1.12,0.104-1.861,0.387-2.173,1.506c-10.196-5.539-13.141-13.979-14.193-21.098h-0.141
					c-0.979,8.202-4.168,15.699-15.736,21.201l-0.452-0.63c10.196-5.569,13.207-12.651,14.119-20.571h-13.948l-0.245-0.875h14.268
					c0.312-3.329,0.312-6.8,0.312-10.372l3.648,0.319c-0.074,0.488-0.318,0.768-1.476,0.838c-0.067,3.119-0.104,6.205-0.423,9.215
					h11.22l1.713-2.209L655.143,85.357z"/>
				<path d="M687.424,96.155l1.608-2.069l3.048,2.173c-0.281,0.489-0.668,0.771-1.684,0.771h-13.318v6.866
					c0,1.721-0.415,2.944-3.641,3.264c0-1.514-1.298-1.824-4.346-1.965v-0.564h5.184c0.668,0,0.883-0.207,0.883-0.771V97.03H660.09
					l-0.252-0.875h15.32V92.58l1.854,0.142c1.58-1.054,3.641-2.632,4.976-3.894H666.43l-0.281-0.875h16.262l1.365-1.297l2.35,2.246
					c-0.281,0.245-0.741,0.275-1.505,0.312c-1.438,1.156-3.997,2.558-6.207,3.611h0.104c-0.03,0.488-0.282,0.696-1.439,0.808v2.521
					H687.424z M686.438,88.406c0.562-1.016,1.297-2.944,1.787-4.375h-23.619c0,2.766-1.713,4.516-3.434,4.516
					c-0.594,0-1.156-0.244-1.156-0.875c0-0.49,0.422-0.979,0.949-1.224c1.431-0.667,2.803-2.491,2.699-4.694l0.63-0.037
					c0.134,0.527,0.245,0.979,0.274,1.439h16.44c1.817-2.352,3.856-5.614,5.042-8.097l3.16,1.577
					c-0.142,0.245-0.387,0.35-0.771,0.35c-0.178,0-0.356-0.037-0.602-0.074c-1.4,1.928-3.604,4.383-5.813,6.244h6.059l1.513-1.514
					l2.691,2.633c-0.244,0.244-0.659,0.281-1.326,0.349c-0.949,1.261-2.736,3.085-4.035,4.063L686.438,88.406z M664.465,75.652
					c3.818,1.615,5.013,3.714,5.013,5.049c0,0.771-0.423,1.327-0.979,1.327c-0.281,0-0.562-0.141-0.845-0.386
					c-0.349-1.816-2.032-4.309-3.5-5.674L664.465,75.652z M673.23,74.74c3.358,1.756,4.412,3.855,4.412,5.293
					c0,1.017-0.527,1.721-1.157,1.721c-0.282,0-0.593-0.141-0.875-0.459c-0.037-2.069-1.364-4.77-2.767-6.31L673.23,74.74z"/>
				<path d="M707.111,75.512l2.455,2.631c-0.282,0.281-0.771,0.349-1.572,0.349c-1.127,2.21-3.33,6.236-4.701,8.38
					c4.871,3.641,5.502,6.443,5.502,8.438c0,3.226-1.261,4.976-4.798,5.258c0-1.298-0.349-1.609-2.521-1.854V98.15h3.188
					c1.75,0,1.995-1.892,1.995-3.049c0-2.736-1.224-5.361-4.167-8.127c0.912-2.21,2.38-6.348,3.329-9.15h-5.644v28.734
					c0,0.179-0.631,0.705-1.543,0.705h-0.318V75.935l2.277,1.015h5.116L707.111,75.512z M728.387,100.012l-0.037,4.59
					c0.875,0.312,1.016,0.349,1.016,0.668c0,0.801-0.801,1.186-3.047,1.186h-3.716c-2.099,0-2.484-0.452-2.484-2.625V92.826H717.1
					c-0.207,0.104-0.525,0.178-0.979,0.207c-0.318,5.852-2.239,11.598-9.744,14.193l-0.348-0.594
					c6.028-2.521,7.92-7.92,8.098-13.807h-4.731l-0.245-0.875h15.803l1.469-1.929l2.877,2.032c-0.281,0.525-0.668,0.771-1.646,0.771
					h-4.976c-0.179,0.066-0.386,0.104-0.704,0.141v10.893c0,0.949,0.037,0.986,0.771,0.986h3.507c0.386,0,0.593-0.074,0.801-0.525
					c0.179-0.424,0.601-2.418,0.949-4.309H728.387z M725.057,84.031c0.245-0.742,0.564-2.144,0.771-3.227h-14.09
					c-0.029,1.928-0.838,4.027-2.699,4.027c-0.63,0-1.045-0.35-1.045-0.875c0-0.49,0.348-0.979,0.801-1.328
					c1.016-0.704,2.031-2.491,2.031-4.175l0.631,0.037c0.111,0.489,0.215,0.979,0.252,1.438h5.918v-5.082l3.574,0.316
					c-0.037,0.559-0.453,0.805-1.684,0.979v3.787h6.104l1.401-1.438l2.625,2.491c-0.282,0.275-0.667,0.312-1.327,0.35
					c-0.668,0.912-1.898,2.238-2.773,2.943L725.057,84.031z M722.291,85.848l1.402-1.816l2.766,1.928
					c-0.282,0.556-0.668,0.771-1.609,0.771h-13.178l-0.244-0.883H722.291z"/>
				<path d="M766.584,85.357c-0.281,0.527-0.667,0.771-1.684,0.771h-13.77c1.297,6.801,4.975,14.156,15.698,19.17l-0.067,0.422
					c-1.127,0.104-1.861,0.387-2.172,1.506c-10.197-5.539-13.141-13.979-14.193-21.098h-0.141
					c-0.979,8.202-4.168,15.699-15.736,21.201l-0.453-0.63c10.197-5.569,13.208-12.651,14.12-20.571h-13.948l-0.246-0.875h14.268
					c0.312-3.329,0.312-6.8,0.312-10.372l3.648,0.319c-0.074,0.488-0.319,0.768-1.477,0.838c-0.066,3.119-0.104,6.205-0.422,9.215
					h11.219l1.714-2.209L766.584,85.357z"/>
				<path d="M797.455,96.155l1.617-2.069l3.047,2.173c-0.281,0.489-0.667,0.771-1.683,0.771h-13.318v6.866
					c0,1.721-0.415,2.944-3.642,3.264c0-1.514-1.297-1.824-4.346-1.965v-0.564h5.184c0.668,0,0.875-0.207,0.875-0.771V97.03h-15.068
					l-0.244-0.875h15.312V92.58l1.861,0.142c1.58-1.054,3.642-2.632,4.977-3.894h-15.559l-0.281-0.875h16.262l1.365-1.297
					l2.351,2.246c-0.282,0.245-0.741,0.275-1.513,0.312c-1.432,1.156-3.99,2.558-6.199,3.611h0.104
					c-0.037,0.488-0.281,0.696-1.438,0.808v2.521H797.455z M796.477,88.406c0.563-1.016,1.298-2.944,1.787-4.375h-23.619
					c0,2.766-1.72,4.516-3.434,4.516c-0.593,0-1.156-0.244-1.156-0.875c0-0.49,0.423-0.979,0.949-1.224
					c1.432-0.667,2.803-2.491,2.691-4.694l0.639-0.037c0.133,0.527,0.244,0.979,0.273,1.439h16.441
					c1.816-2.352,3.855-5.614,5.042-8.097l3.151,1.577c-0.133,0.245-0.378,0.35-0.764,0.35c-0.178,0-0.355-0.037-0.601-0.074
					c-1.401,1.928-3.611,4.383-5.813,6.244h6.059l1.505-1.514l2.699,2.633c-0.245,0.244-0.659,0.281-1.327,0.349
					c-0.949,1.261-2.736,3.085-4.034,4.063L796.477,88.406z M774.504,75.652c3.819,1.615,5.014,3.714,5.014,5.049
					c0,0.771-0.424,1.327-0.979,1.327c-0.282,0-0.563-0.141-0.845-0.386c-0.35-1.816-2.032-4.309-3.5-5.674L774.504,75.652z
					 M783.27,74.74c3.359,1.756,4.412,3.855,4.412,5.293c0,1.017-0.526,1.721-1.156,1.721c-0.282,0-0.594-0.141-0.875-0.459
					c-0.037-2.069-1.365-4.77-2.767-6.31L783.27,74.74z"/>
			</g>
		</g>
		<g>
			<g>
				<path d="M774.896,48.871c0,6.904-5.375,11.621-11.619,11.621c-6.875,0-11.613-5.199-11.613-11.621
					c0-7.029,5.206-11.619,11.613-11.619C769.691,37.252,774.896,42.116,774.896,48.871z M762.691,37.956
					c-5.199,0-9.181,4.308-8.817,10.901c0.326,6.021,4.427,10.9,10.003,10.9c4.465,0,9.166-4.428,8.811-10.9
					C772.346,42.517,768.342,37.956,762.691,37.956z"/>
				<path d="M788.461,37.533c-1.128,0-6.793,0.089-8.246,0.104c-1.01,0-1.684,0-2.211-0.059v0.267
					c0.727,0.356,1.254,0.757,1.254,2.618V57.17c0,1.861-0.527,2.254-1.254,2.617v0.268c0.527-0.06,1.201-0.06,2.211-0.06h0.007
					c1.001,0,1.676,0,2.202,0.06v-0.268c-0.719-0.355-1.246-0.452-1.261-2.239v-9.21h4.331c1.861,0,1.95,0.533,2.313,1.26h0.26
					c-0.06-0.525-0.081-0.822-0.081-1.831s0.021-1.298,0.081-1.824h-0.26c-0.363,0.712-0.452,1.246-2.247,1.261h-4.397v-7.668v0.029
					v-0.771l6.696-0.052c1.691,0,1.684,0.607,1.965,1.135l0.275-0.03C789.973,38.178,789.588,37.533,788.461,37.533z"/>
			</g>
			<g>
				<path d="M574.906,59.861c-0.719-0.355-1.245-0.452-1.26-2.246V39.787v0.03c0-0.912,0.326-1.528,1.246-1.913l0.007-0.252
					c-0.638,0.096-1.417,0.081-2.202,0.088c-0.779-0.007-1.551,0.008-2.181-0.088l-0.015,0.252c0.92,0.385,1.246,1.001,1.246,1.913
					v17.73l0,0c0,1.861-0.534,1.958-1.261,2.313v0.26c0.526-0.052,1.201-0.052,2.21-0.052l0,0c1.008,0,1.684,0,2.209,0.052V59.861z"
					/>
				<path d="M651.109,59.861c-0.72-0.355-1.246-0.452-1.261-2.246V39.787v0.03c0-0.912,0.326-1.528,1.245-1.913l0.008-0.252
					c-0.638,0.096-1.416,0.081-2.202,0.088c-0.778-0.007-1.55,0.008-2.181-0.088l-0.015,0.252c0.92,0.385,1.246,1.001,1.246,1.913
					v17.73l0,0c0,1.861-0.534,1.958-1.261,2.313v0.26c0.526-0.052,1.201-0.052,2.21-0.052l0,0c1.009,0,1.683,0,2.21,0.052V59.861z"
					/>
				<path d="M618.77,38.223v2.625h-0.311c-1.002-2.38-3.07-3.033-5.177-2.951c-2.528,0.097-4.093,1.75-4.212,3.352
					c-0.17,2.27,1.105,3.738,5.295,6.578c4.396,2.988,5.302,4.145,5.302,6.748c0,2.425-1.987,5.844-6.681,5.844
					c-2.033,0-4.398-0.972-5.785-1.083v-3.686h0.363c0.208,2.113,1.588,3.952,5.422,3.952c3.611,0,4.99-2.603,4.871-4.271
					c-0.148-2.091-1.001-3.151-4.612-5.65c-4.026-2.788-5.673-4.205-5.673-7.326c0-3.145,2.943-5.125,5.71-5.125
					C616.375,37.229,617.523,37.956,618.77,38.223z"/>
				<path d="M640.371,37.629c-1.127,0-4.353,0.09-5.807,0.104h-3.9c-1.453-0.015-4.679-0.104-5.807-0.104
					c-1.134,0-1.424,0.549-1.787,2.329h0.305c0.274-0.526,0.601-1.127,2.299-1.127h5.636c0.178,0.304,0.252,0.659,0.252,1.09v17.664
					c-0.015,1.794-0.578,1.892-1.319,2.247v0.26c0.541-0.06,1.268-0.06,2.312-0.06h0.008c1.031,0,1.721,0,2.27,0.06l0.008-0.26
					c-0.734-0.355-1.299-0.453-1.32-2.21v-17.73l0.008,0.029c0-0.431,0.066-0.786,0.244-1.09h5.999c1.698,0,1.684,0.601,1.966,1.127
					l0.281-0.022C641.892,38.268,641.506,37.629,640.371,37.629z"/>
				<path d="M673.334,37.629c-1.127,0-4.354,0.09-5.799,0.104h-3.901c-1.453-0.015-4.687-0.104-5.813-0.104
					s-1.416,0.549-1.779,2.329h0.296c0.282-0.526,0.608-1.127,2.307-1.127h5.636c0.17,0.304,0.244,0.659,0.244,1.09v17.664
					c-0.014,1.794-0.57,1.892-1.319,2.247l0.007,0.26c0.541-0.06,1.269-0.06,2.314-0.06l0,0c1.037,0,1.728,0,2.269,0.06l0.008-0.26
					c-0.734-0.355-1.298-0.453-1.32-2.21v-17.73l0.007,0.029c0-0.431,0.074-0.786,0.253-1.09h5.999c1.698,0,1.676,0.601,1.965,1.127
					l0.275-0.022C674.854,38.268,674.469,37.629,673.334,37.629z"/>
				<path d="M719.125,37.629c-1.127,0-4.361,0.09-5.807,0.104h-3.9c-1.453-0.015-4.68-0.104-5.807-0.104
					c-1.135,0-1.424,0.549-1.787,2.329h0.297c0.281-0.526,0.607-1.127,2.299-1.127h5.643c0.171,0.304,0.252,0.659,0.252,1.09v17.664
					c-0.014,1.794-0.578,1.892-1.319,2.247v0.26c0.541-0.06,1.269-0.06,2.313-0.06l0,0c1.046,0,1.735,0,2.277,0.06v-0.26
					c-0.728-0.355-1.291-0.453-1.313-2.21v-17.73l0.008,0.029c0-0.431,0.074-0.786,0.245-1.09h5.998
					c1.691,0,1.684,0.601,1.966,1.127l0.274-0.022C720.645,38.268,720.252,37.629,719.125,37.629z"/>
				<path d="M697.271,57.615V39.787l0.007,0.03c0-0.912,0.319-1.528,1.246-1.913v-0.252c-0.63,0.096-1.417,0.081-2.202,0.088
					c-0.779-0.007-1.543,0.008-2.174-0.088l-0.014,0.252c0.919,0.385,1.238,1.001,1.238,1.913v11.36
					c-0.127,3.619-2.826,8.157-7.104,8.157c-3.545,0-6.54-2.736-6.54-7.66V39.884h0.007c0-0.912,0.319-1.527,1.238-1.913
					l0.008-0.252c-0.63,0.096-1.417,0.082-2.195,0.089c-0.786-0.007-1.55,0.007-2.188-0.089l-0.007,0.252
					c0.919,0.386,1.238,1.001,1.238,1.913v11.331c0,6.348,3.975,9.336,8.395,9.137c3.967,0,6.436-3.39,7.148-6.549v3.745
					c0,1.861-0.527,1.958-1.254,2.313v0.26c0.527-0.052,1.201-0.052,2.203-0.052h0.007c1.009,0,1.684,0,2.21,0.052v-0.26
					C697.812,59.506,697.285,59.409,697.271,57.615z"/>
				<path d="M736.863,57.622c-0.282,0.526-0.275,1.134-1.966,1.134l-7.452,0.082v-9.943h4.338c1.861,0,1.95,0.525,2.313,1.26h0.26
					c-0.06-0.533-0.081-0.822-0.081-1.832l0,0c0-1.008,0.021-1.305,0.081-1.831h-0.26c-0.356,0.727-0.452,1.253-2.247,1.269h-4.404
					v-8.988l6.703,0.037c1.698,0,1.676,0.608,1.965,1.135l0.275-0.029c-0.127-1.669-0.505-2.381-1.639-2.381
					c-1.135,0-6.801,0.089-8.246,0.104c-1.01,0-1.677,0-2.211-0.059v0.267c0.727,0.356,1.262,0.757,1.262,2.618V57.17
					c0,1.861-0.535,2.254-1.262,2.617v0.268c0.534-0.06,1.201-0.06,2.211-0.06c1.445,0.007,7.867,0.104,8.994,0.104
					s1.514-0.771,1.639-2.439L736.863,57.622z"/>
				<path d="M600.557,37.801c-0.777-0.008-1.268,0.007-1.905-0.098l-0.015,0.26c0.92,0.387,1.246,1.002,1.246,1.914v16.129
					l-15.313-18.287h-0.683c-0.785,0-1.55,0.008-2.188-0.097l-0.015,0.26c0.927,0.386,1.245,1.001,1.245,1.913v17.753
					c0,1.854-0.525,1.942-1.26,2.306v0.268c0.526-0.066,1.201-0.066,2.209-0.066h0.008c1.002,0,1.676,0,2.203,0.066v-0.268
					c-0.72-0.355-1.246-0.451-1.262-2.238V40.893l15.937,19.332h0.475V39.877c0-0.912,0.327-1.527,1.246-1.914l0.007-0.26
					C601.855,37.808,601.344,37.793,600.557,37.801z"/>
			</g>
			<g>
				<path d="M849.824,59.861c-0.72-0.355-1.246-0.452-1.261-2.246V39.787v0.03c0-0.912,0.326-1.528,1.245-1.913l0.008-0.252
					c-0.638,0.096-1.416,0.081-2.202,0.088c-0.778-0.007-1.55,0.008-2.181-0.088l-0.014,0.252c0.919,0.385,1.245,1.001,1.245,1.913
					v17.73l0,0c0,1.861-0.534,1.958-1.261,2.313v0.26c0.526-0.052,1.201-0.052,2.21-0.052l0,0c1.009,0,1.683,0,2.21,0.052V59.861z"
					/>
				<path d="M816.803,38.223v2.625h-0.312c-1.001-2.38-3.07-3.033-5.177-2.951c-2.528,0.097-4.093,1.75-4.211,3.352
					c-0.171,2.27,1.104,3.738,5.294,6.578c4.397,2.988,5.295,4.145,5.295,6.748c0,2.425-1.979,5.844-6.682,5.844
					c-2.024,0-4.39-0.972-5.776-1.083v-3.686h0.363c0.2,2.113,1.587,3.952,5.413,3.952c3.612,0,4.999-2.603,4.88-4.271
					c-0.148-2.091-1.002-3.151-4.613-5.65c-4.025-2.788-5.672-4.205-5.672-7.326c0-3.145,2.943-5.125,5.709-5.125
					C814.407,37.229,815.557,37.956,816.803,38.223z"/>
				<path d="M867.822,57.622c-0.282,0.526-0.275,1.134-1.966,1.134l-7.452,0.082v-9.943h4.338c1.861,0,1.95,0.525,2.313,1.26h0.259
					c-0.059-0.533-0.081-0.822-0.081-1.832l0,0c0-1.008,0.022-1.305,0.081-1.831h-0.259c-0.356,0.727-0.452,1.253-2.247,1.269
					h-4.404v-8.988l6.703,0.037c1.698,0,1.676,0.608,1.965,1.135l0.275-0.029c-0.127-1.669-0.505-2.381-1.64-2.381
					c-1.134,0-6.8,0.089-8.246,0.104c-1.009,0-1.676,0-2.21-0.059v0.267c0.727,0.356,1.261,0.757,1.261,2.618V57.17
					c0,1.861-0.534,2.254-1.261,2.617v0.268c0.534-0.06,1.201-0.06,2.21-0.06c1.446,0.007,7.868,0.104,8.995,0.104
					s1.513-0.771,1.639-2.439L867.822,57.622z"/>
				<path d="M932.812,57.622c-0.274,0.526-0.267,1.134-1.958,1.134l-7.452,0.082v-9.943h4.338c1.861,0,1.95,0.525,2.313,1.26h0.26
					c-0.059-0.533-0.082-0.822-0.082-1.832l0,0c0-1.008,0.023-1.305,0.082-1.831h-0.26c-0.363,0.727-0.452,1.253-2.254,1.269h-4.397
					v-8.988l6.704,0.037c1.69,0,1.676,0.608,1.965,1.135l0.273-0.029c-0.125-1.669-0.511-2.381-1.639-2.381
					c-1.135,0-6.799,0.089-8.246,0.104c-1.008,0-1.683,0-2.209-0.059v0.267c0.727,0.356,1.253,0.757,1.253,2.618V57.17
					c0,1.861-0.526,2.254-1.253,2.617v0.268c0.526-0.06,1.201-0.06,2.209-0.06c1.447,0.007,7.869,0.104,8.996,0.104
					s1.512-0.771,1.639-2.439L932.812,57.622z"/>
				<path d="M833.064,60.418c-7.281,0-11.828-5.184-11.828-11.584c0-7,5.117-11.464,11.421-11.464c0.935,0,1.772,0.074,2.528,0.186
					c3.196,0.489,4.139,1.253,5.198,1.698v2.914h-0.304c-1.001-2.358-1.98-3.271-4.932-3.863c-1.624-0.305-3.07-0.23-3.07-0.23
					c-5.109,0.097-9.024,4.168-8.668,10.746c0.326,6.006,4.353,10.789,9.832,10.789c1.113,0,1.936-0.008,3.642-0.719
					c1.461-0.609,2.276-1.128,3.5-2.211v0.861c-1.394,1.215-2.343,1.683-3.396,2.15C835.838,60.195,834.703,60.418,833.064,60.418z"
					/>
				<path d="M908.259,60.418c-7.282,0-11.828-5.184-11.828-11.584c0-7,5.117-11.464,11.421-11.464c0.934,0,1.771,0.074,2.527,0.186
					c3.197,0.489,4.139,1.253,5.199,1.698v2.914h-0.305c-1-2.358-1.979-3.271-4.932-3.863c-1.623-0.305-3.069-0.23-3.069-0.23
					c-5.109,0.097-9.024,4.168-8.669,10.746c0.326,6.006,4.354,10.789,9.833,10.789c1.112,0,1.936-0.008,3.642-0.719
					c1.461-0.609,2.276-1.128,3.5-2.211v0.861c-1.395,1.215-2.344,1.683-3.396,2.15C911.032,60.195,909.897,60.418,908.259,60.418z"
					/>
				<path d="M891.174,37.801c-0.779-0.008-1.269,0.007-1.906-0.098l-0.016,0.26c0.92,0.387,1.246,1.002,1.246,1.914v16.129
					l-15.312-18.287h-0.683c-0.786,0-1.55,0.008-2.188-0.097l-0.015,0.26c0.927,0.386,1.246,1.001,1.246,1.913v17.753
					c0,1.854-0.527,1.942-1.262,2.306v0.268c0.527-0.066,1.202-0.066,2.211-0.066h0.007c1.001,0,1.677,0,2.202,0.066v-0.268
					c-0.719-0.355-1.246-0.451-1.26-2.238V40.893l15.936,19.332h0.475V39.877c0-0.912,0.326-1.527,1.246-1.914l0.008-0.26
					C892.471,37.808,891.959,37.793,891.174,37.801z"/>
			</g>
			<g>
				<path d="M968.495,57.029l-8.283-19.904h-0.267l-8.076,18.629l-0.756,1.505c-0.689,1.387-2.047,2.144-2.773,2.507v0.259
					c0.526-0.06,1.193-0.06,2.203-0.06h0.007c1.001,0,1.676,0,2.21,0.06l-0.008-0.259c-0.712-0.363-0.764-1.275-0.363-2.329
					l1.49-3.485H965.1l1.371,3.33c0.705,1.684,0.223,2.158-0.504,2.514v0.26c0.526-0.053,1.527-0.053,2.536-0.053
					s2.128,0,2.655,0.053v-0.26C970.431,59.439,969.6,59.409,968.495,57.029z M954.316,52.936l5.146-12.028h0.268l4.953,12.028
					H954.316z"/>
				<path d="M1006.203,37.637c-1.32-0.037-4.33,0.201-5.783,0.223c-0.764-0.008-1.506,0-2.129-0.089l-0.015,0.252
					c0.919,0.386,1.245,1.001,1.245,1.913V57.48c0,1.861-0.533,1.959-1.26,2.314v0.26c0.526-0.053,2.209-0.053,2.209-0.053
					l0.03-0.051l-0.022,0.044c2.396,0,5.014,0.229,6.104,0.229c3.418,0,11.538-1.179,11.538-11.701
					C1018.12,38,1009.303,37.727,1006.203,37.637z M1006.529,59.312c-2.743,0-3.952-0.163-5.146-0.711l0.016-0.016V38.764l0,0
					c1.156-0.162,2.766-0.311,4.701-0.326c6.467-0.074,9.781,3.516,9.781,10.567C1015.881,56.324,1012.195,59.312,1006.529,59.312z"
					/>
				<path d="M992.352,37.801c-0.779-0.008-1.269,0.007-1.906-0.098l-0.015,0.26c0.919,0.387,1.245,1.002,1.245,1.914v16.129
					l-15.312-18.287h-0.682c-0.787,0-1.551,0.008-2.188-0.097l-0.016,0.26c0.928,0.386,1.246,1.001,1.246,1.913v17.753
					c0,1.854-0.527,1.942-1.261,2.306v0.268c0.526-0.066,1.201-0.066,2.21-0.066h0.008c1,0,1.676,0,2.201,0.066v-0.268
					c-0.719-0.355-1.245-0.451-1.26-2.238V40.893l15.936,19.332h0.475V39.877c0-0.912,0.326-1.527,1.246-1.914l0.008-0.26
					C993.648,37.808,993.137,37.793,992.352,37.801z"/>
			</g>
			<g>
				<path d="M1048.184,37.629c-1.135,0-4.361,0.09-5.814,0.104h-3.9c-1.453-0.015-4.68-0.104-5.807-0.104
					c-1.135,0-1.424,0.549-1.787,2.329h0.305c0.281-0.526,0.607-1.127,2.299-1.127h5.643c0.171,0.304,0.244,0.659,0.244,1.09v17.664
					c-0.007,1.794-0.578,1.892-1.319,2.247v0.26c0.549-0.06,1.275-0.06,2.313-0.06l0,0c1.046,0,1.735,0,2.284,0.06v-0.26
					c-0.733-0.355-1.298-0.453-1.319-2.21v-17.73l0.007,0.029c0-0.431,0.074-0.786,0.245-1.09h6.006
					c1.691,0,1.676,0.601,1.958,1.127l0.282-0.022C1049.695,38.268,1049.303,37.629,1048.184,37.629z"/>
				<path d="M1163.213,48.871c0,6.904-5.376,11.621-11.619,11.621c-6.875,0-11.613-5.199-11.613-11.621
					c0-7.029,5.198-11.619,11.613-11.619C1158.016,37.252,1163.213,42.116,1163.213,48.871z M1151,37.956
					c-5.198,0-9.174,4.308-8.811,10.901c0.327,6.021,4.428,10.9,9.997,10.9c4.472,0,9.173-4.428,8.817-10.9
					C1160.662,42.517,1156.658,37.956,1151,37.956z"/>
				<path d="M1203.369,48.871c0,6.904-5.369,11.621-11.613,11.621c-6.882,0-11.62-5.199-11.62-11.621
					c0-7.029,5.206-11.619,11.62-11.619S1203.369,42.116,1203.369,48.871z M1191.162,37.956c-5.197,0-9.18,4.308-8.816,10.901
					c0.326,6.021,4.427,10.9,10.004,10.9c4.471,0,9.165-4.428,8.809-10.9C1200.817,42.517,1196.82,37.956,1191.162,37.956z"/>
				<path d="M1065.068,57.622c-0.274,0.526-0.268,1.134-1.958,1.134l-7.452,0.082v-9.943h4.338c1.861,0,1.95,0.525,2.313,1.26h0.26
					c-0.06-0.533-0.081-0.822-0.081-1.832l0,0c0-1.008,0.021-1.305,0.081-1.831h-0.26c-0.363,0.727-0.452,1.253-2.255,1.269h-4.396
					v-8.988l6.703,0.037c1.691,0,1.676,0.608,1.965,1.135l0.275-0.029c-0.127-1.669-0.512-2.381-1.639-2.381
					c-1.135,0-6.801,0.089-8.246,0.104c-1.01,0-1.684,0-2.211-0.059v0.267c0.727,0.356,1.254,0.757,1.254,2.618V57.17
					c0,1.861-0.527,2.254-1.254,2.617v0.268c0.527-0.06,1.201-0.06,2.211-0.06c1.445,0.007,7.867,0.104,8.994,0.104
					s1.514-0.771,1.639-2.439L1065.068,57.622z"/>
				<path d="M1080.122,60.418c-7.282,0-11.828-5.184-11.828-11.584c0-7,5.109-11.464,11.42-11.464c0.935,0,1.772,0.074,2.528,0.186
					c3.197,0.489,4.139,1.253,5.199,1.698v2.914h-0.305c-1.008-2.358-1.987-3.271-4.932-3.863c-1.631-0.305-3.069-0.23-3.069-0.23
					c-5.109,0.097-9.024,4.168-8.677,10.746c0.326,6.006,4.361,10.789,9.841,10.789c1.112,0,1.936-0.008,3.642-0.719
					c1.461-0.609,2.275-1.128,3.5-2.211v0.861c-1.402,1.215-2.344,1.683-3.396,2.15
					C1082.896,60.195,1081.761,60.418,1080.122,60.418z"/>
				<path d="M1109.71,57.548V39.854l0.007,0.029c0-0.912,0.319-1.527,1.246-1.913v-0.252c-0.637,0.096-1.416,0.082-2.202,0.089
					c-0.778-0.007-1.542,0.007-2.181-0.089l-0.007,0.252c0.919,0.386,1.238,1.001,1.238,1.913v7.452h-13.207v-7.452
					c0-0.912,0.326-1.527,1.245-1.913l0.008-0.252c-0.638,0.096-1.416,0.082-2.202,0.089c-0.778-0.007-1.542,0.007-2.181-0.089
					l-0.014,0.252c0.926,0.386,1.245,1.001,1.245,1.913V57.48c0,1.861-0.534,1.959-1.261,2.314v0.26
					c0.527-0.053,1.201-0.053,2.21-0.053s1.683,0,2.21,0.053v-0.26c-0.719-0.355-1.246-0.453-1.261-2.247v-9.099h13.207v9.031
					c0,1.861-0.526,1.959-1.253,2.314l-0.008,0.26c0.534-0.053,1.201-0.053,2.21-0.053c1.017,0,1.69,0,2.218,0.053v-0.26
					C1110.252,59.439,1109.725,59.342,1109.71,57.548z"/>
				<path d="M1170.592,58.86l5.74-0.148c1.594,0.052,2.246-0.608,2.639-1.468c0.104-0.245,0.268-0.074,0.23,0.074
					c-0.541,2.076-0.904,2.751-1.965,2.714c-1.268-0.045-4.672-0.008-6.125-0.022h-1.432l-1.061-0.008h-0.008
					c-1,0-1.676,0-2.202,0.053v-0.26c0.728-0.355,1.261-0.453,1.261-2.314l0,0V39.884c0-0.912-0.326-1.527-1.246-1.913l0.008-0.252
					c0.638,0.096,1.401,0.082,2.188,0.089c0.779-0.007,1.564,0.007,2.195-0.089l-0.008,0.252c-0.912,0.386-1.238,1.001-1.238,1.913
					v-0.029v17.693C1169.568,57.548,1169.428,58.86,1170.592,58.86z"/>
				<path d="M1224.748,50.963c-0.787-0.008-1.551,0.008-2.188-0.097l-0.016,0.26c0.928,0.386,1.246,0.993,1.246,1.913v4.094
					c0,0.563-0.089,1.008-0.274,1.334c-0.186,0.334-0.608,0.586-1.261,0.779c-0.66,0.193-1.624,0.349-3.018,0.349
					c-6.697,0-8.951-4.212-8.951-4.212c-1.172-1.832-1.697-4.139-1.824-6.607c-0.422-8.017,4.502-10.797,9.314-10.797
					c0,0,6.109-0.275,7.793,4.078h0.312V39.18c-2.062-0.986-4.413-1.928-8.105-1.928c-5.933,0-11.354,3.611-11.354,11.635
					c0,4.264,1.557,7.089,3.678,8.854c0,0,0.742,0.646,1.558,1.053c1.298,0.646,2.499,1.135,3.679,1.336
					c1.171,0.199,2.365,0.289,3.566,0.289c3.611,0,5.154-0.602,6.785-1.09v-6.289c0-0.92,0.326-1.527,1.246-1.913l0.008-0.26
					C1226.305,50.971,1225.526,50.955,1224.748,50.963z"/>
				<path d="M1246.4,37.808c-0.777-0.007-1.541,0.007-2.18-0.089l-0.008,0.252c0.92,0.386,1.157,0.719,0.854,1.387
					c0,0-1.164,2.276-5.613,8.729l-6.059-8.447c-0.676-0.941-1.039-1.282,0.052-1.668l0.007-0.252
					c-0.756,0.096-1.356,0.082-2.276,0.089c-0.919-0.007-1.505,0.007-2.254-0.089l-0.015,0.252c1.09,0.386,1.586,1.075,2.32,1.987
					l6.734,9.618v7.935c0,1.861-0.527,1.942-1.254,2.306v0.268c0.526-0.06,1.201-0.06,2.21-0.06s1.683,0,2.21,0.06v-0.268
					c-0.72-0.355-1.254-0.451-1.261-2.238v-8.276l6.103-9.418c0.867-1.164,1.706-1.527,2.625-1.913l0.008-0.252
					C1247.966,37.814,1247.188,37.801,1246.4,37.808z"/>
				<path d="M1134.516,37.801c-0.779-0.008-1.269,0.007-1.906-0.098l-0.016,0.26c0.92,0.387,1.246,1.002,1.246,1.914v16.129
					l-15.312-18.287h-0.683c-0.786,0-1.55,0.008-2.188-0.097l-0.015,0.26c0.927,0.386,1.246,1.001,1.246,1.913v17.753
					c0,1.854-0.527,1.942-1.262,2.306v0.268c0.527-0.066,1.202-0.066,2.211-0.066h0.007c1.001,0,1.677,0,2.202,0.066v-0.268
					c-0.719-0.355-1.246-0.451-1.26-2.238V40.893l15.936,19.332h0.475V39.877c0-0.912,0.326-1.527,1.246-1.914l0.008-0.26
					C1135.812,37.808,1135.301,37.793,1134.516,37.801z"/>
			</g>
			<g>
				<path d="M450.666,59.861c-0.727-0.355-1.253-0.452-1.268-2.246V39.787l0.008,0.03c0-0.912,0.318-1.528,1.245-1.913v-0.252
					c-0.63,0.096-1.416,0.081-2.202,0.088c-0.779-0.007-1.543,0.008-2.173-0.088l-0.015,0.252c0.92,0.385,1.238,1.001,1.238,1.913
					v17.73l0,0c0,1.861-0.526,1.958-1.254,2.313v0.26c0.527-0.052,1.202-0.052,2.203-0.052h0.008c1.008,0,1.683,0,2.209,0.052
					V59.861z"/>
				<path d="M418.816,48.871c0,6.904-5.376,11.621-11.62,11.621c-6.874,0-11.612-5.199-11.612-11.621
					c0-7.029,5.197-11.619,11.612-11.619S418.816,42.116,418.816,48.871z M406.604,37.956c-5.199,0-9.174,4.308-8.811,10.901
					c0.326,6.021,4.428,10.9,9.996,10.9c4.473,0,9.174-4.428,8.817-10.9C416.266,42.517,412.262,37.956,406.604,37.956z"/>
				<path d="M437.63,56.673l-9.04-9.67l7.246-7.386c0,0,1.438-1.564,3.188-1.639l0.008-0.289c-0.712,0.051-3.834,0.081-4.242,0.037
					c0,0,0.053,0.34,0,0.652c-0.044,0.229-0.029,0.674-0.533,1.268L426.01,47.9v-8.046l0.008,0.029c0-0.912,0.318-1.527,1.238-1.913
					l0.007-0.252c-0.638,0.096-1.416,0.082-2.194,0.089c-0.787-0.007-1.551,0.007-2.188-0.089l-0.008,0.252
					c0.92,0.386,1.238,1.001,1.238,1.913V57.48c0,1.861-0.527,1.959-1.254,2.314l-0.007,0.26c0.534-0.053,1.201-0.053,2.21-0.053
					h0.008c1.008,0,1.683,0,2.209,0.053v-0.26c-0.727-0.355-1.253-0.453-1.268-2.247v-9.47c0.244-0.066,0.934-0.089,1.432,0.363
					c0.533,0.482,6.718,7.445,9.172,9.893c1.225,1.23,4.139,2.195,6.148,1.869v-0.371C440.403,59.884,439.047,58.119,437.63,56.673z
					"/>
				<path d="M500.344,57.029l-8.283-19.904h-0.268l-8.075,18.629l-0.765,1.505c-0.689,1.387-2.046,2.144-2.773,2.507v0.259
					c0.527-0.06,1.202-0.06,2.211-0.06l0,0c1.008,0,1.684,0,2.209,0.06v-0.259c-0.719-0.363-0.764-1.275-0.363-2.329l1.49-3.485
					h11.221l1.371,3.33c0.705,1.684,0.223,2.158-0.504,2.514v0.26c0.526-0.053,1.527-0.053,2.536-0.053s2.121,0,2.647,0.053v-0.26
					C502.279,59.439,501.448,59.409,500.344,57.029z M486.164,52.936l5.146-12.028h0.268l4.946,12.028H486.164z"/>
				<path d="M549.761,57.029l-8.283-19.904h-0.267l-8.076,18.629l-0.756,1.505c-0.689,1.387-2.047,2.144-2.773,2.507v0.259
					c0.525-0.06,1.193-0.06,2.202-0.06h0.007c1.002,0,1.676,0,2.211,0.06l-0.008-0.259c-0.712-0.363-0.764-1.275-0.363-2.329
					l1.49-3.485h11.22l1.372,3.33c0.704,1.684,0.223,2.158-0.504,2.514v0.26c0.525-0.053,1.527-0.053,2.535-0.053
					c1.009,0,2.129,0,2.655,0.053v-0.26C551.695,59.439,550.865,59.409,549.761,57.029z M535.582,52.936l5.146-12.028h0.268
					l4.953,12.028H535.582z"/>
				<path d="M475.976,37.801c-0.778-0.008-1.275,0.007-1.913-0.098l-0.008,0.26c0.92,0.387,1.246,1.002,1.246,1.914v16.129
					l-15.312-18.287h-0.69c-0.786,0-1.542,0.008-2.181-0.097l-0.014,0.26c0.919,0.386,1.246,1.001,1.246,1.913v17.753
					c0,1.854-0.535,1.942-1.262,2.306v0.268c0.527-0.066,1.201-0.066,2.21-0.066l0,0c1.009,0,1.684,0,2.21,0.066v-0.268
					c-0.719-0.355-1.253-0.451-1.261-2.238V40.893l15.937,19.332h0.475V39.877c0-0.912,0.318-1.527,1.246-1.914l0.007-0.26
					C477.273,37.808,476.762,37.793,475.976,37.801z"/>
				<path d="M533.558,37.719c-0.727,0.096-1.298,0.082-2.194,0.089c-0.891-0.007-1.484,0.007-2.218-0.089l0.015,0.252
					c0.883,0.371,0.645,1.335,0.334,2.024l-8.691,17.493l-3.404-7.668l4.977-9.795c0.475-0.905,1.342-1.58,2.751-2.055l-0.015-0.252
					c-0.727,0.096-1.298,0.082-2.188,0.089c-0.904-0.007-1.49,0.007-2.217-0.089v0.252c0.882,0.371,0.607,1.372,0.333,2.024
					l-4.228,8.506l-3.773-8.506c-0.319-0.801-0.683-1.639,0.408-2.024l0.007-0.252c-0.757,0.096-1.357,0.082-2.276,0.089
					c-0.92-0.007-1.506,0.007-2.255-0.089l-0.015,0.252c1.09,0.386,1.617,1.001,2.105,1.913l4.762,10.724l-3.419,6.881
					l-7.765-17.493c-0.318-0.801-0.682-1.639,0.4-2.024L505,37.719c-0.741,0.096-1.35,0.082-2.27,0.089
					c-0.926-0.007-1.505,0.007-2.254-0.089l-0.015,0.252c1.083,0.386,1.616,1.001,2.106,1.913l9.121,20.556
					c0.155,0.35,0.223,0.186,0.348-0.044l4.309-8.491l3.789,8.535c0.164,0.35,0.223,0.186,0.356-0.044l10.33-20.37
					c0.481-0.905,1.343-1.58,2.759-2.055L533.558,37.719z"/>
			</g>
			<g>
				<path d="M1369.544,57.615V39.787v0.03c0-0.912,0.326-1.528,1.246-1.913l0.007-0.252c-0.637,0.096-1.416,0.081-2.202,0.088
					c-0.778-0.007-1.55,0.008-2.181-0.088l-0.014,0.252c0.919,0.385,1.245,1.001,1.245,1.913v11.36
					c-0.134,3.619-2.833,8.157-7.111,8.157c-3.537,0-6.533-2.736-6.533-7.66V39.884l0,0c0-0.912,0.326-1.527,1.245-1.913
					l0.008-0.252c-0.637,0.096-1.416,0.082-2.195,0.089c-0.785-0.007-1.549,0.007-2.188-0.089l-0.014,0.252
					c0.926,0.386,1.245,1.001,1.245,1.913v11.331c0,6.348,3.975,9.336,8.395,9.137c3.968,0,6.437-3.39,7.148-6.549v3.745
					c0,1.861-0.534,1.958-1.261,2.313v0.26c0.527-0.052,1.201-0.052,2.21-0.052l0,0c1.009,0,1.684,0,2.21,0.052v-0.26
					C1370.086,59.506,1369.559,59.409,1369.544,57.615z"/>
				<path d="M1323.471,57.029l-8.283-19.904h-0.267l-8.075,18.629l-0.764,1.505c-0.689,1.387-1.306,2.032-2.047,1.564l0.711,1.027
					c0.527-0.06-0.236,0.114,0.771,0.114l0,0c1.009,0,1.684,0,2.211,0.06v-0.259c-0.721-0.363-0.765-1.275-0.364-2.329l1.491-3.485
					h11.219l1.373,3.33c0.703,1.684,0.222,2.158-0.505,2.514v0.26c0.526-0.053,1.528-0.053,2.536-0.053s2.121,0,2.647,0.053v-0.26
					C1325.406,59.439,1324.576,59.409,1323.471,57.029z M1309.293,52.936l5.146-12.028h0.267l4.954,12.028H1309.293z"/>
				<path d="M1393.074,57.029l-8.283-19.904h-0.268l-8.076,18.629l-0.756,1.505c-0.689,1.387-2.047,2.144-2.773,2.507v0.259
					c0.527-0.06,1.193-0.06,2.203-0.06h0.007c1.001,0,1.676,0,2.21,0.06l-0.008-0.259c-0.711-0.363-0.764-1.275-0.363-2.329
					l1.49-3.485h11.221l1.371,3.33c0.705,1.684,0.223,2.158-0.504,2.514v0.26c0.526-0.053,1.527-0.053,2.536-0.053
					s2.128,0,2.655,0.053v-0.26C1395.01,59.439,1394.179,59.409,1393.074,57.029z M1378.895,52.936l5.146-12.028h0.268l4.953,12.028
					H1378.895z"/>
				<path d="M1335.988,37.637c-1.327-0.037-4.33,0.201-5.791,0.223c-0.764-0.008-1.506,0-2.129-0.089l-0.015,0.252
					c0.927,0.386,1.246,1.001,1.246,1.913V57.48c0,1.861-0.534,1.959-1.261,2.314v0.26c0.526-0.053,2.21-0.053,2.21-0.053
					l0.037-0.051l-0.03,0.044c2.396,0,5.014,0.229,6.104,0.229c3.426,0,11.539-1.179,11.539-11.701
					C1347.898,38,1339.081,37.727,1335.988,37.637z M1336.308,59.312c-2.744,0-3.952-0.163-5.14-0.711l0.008-0.016V38.764l0,0
					c1.156-0.162,2.773-0.311,4.701-0.326c6.467-0.074,9.781,3.516,9.781,10.567C1345.658,56.324,1341.973,59.312,1336.308,59.312z"
					/>
				<path d="M1410.671,37.629c-1.135,0-4.36,0.09-5.813,0.104h-3.9c-1.454-0.015-4.68-0.104-5.807-0.104
					c-1.135,0-1.424,0.549-1.787,2.329h0.304c0.282-0.526,0.608-1.127,2.299-1.127h5.644c0.17,0.304,0.244,0.659,0.244,1.09v17.664
					c-0.008,1.794-0.578,1.892-1.32,2.247v0.26c0.549-0.06,1.275-0.06,2.314-0.06l0,0c1.045,0,1.734,0,2.283,0.06v-0.26
					c-0.734-0.355-1.297-0.453-1.319-2.21v-17.73l0.007,0.029c0-0.431,0.074-0.786,0.245-1.09h6.007c1.69,0,1.676,0.601,1.957,1.127
					l0.282-0.022C1412.184,38.268,1411.791,37.629,1410.671,37.629z"/>
				<path d="M1427.557,57.622c-0.275,0.526-0.268,1.134-1.959,1.134l-7.452,0.082v-9.943h4.339c1.861,0,1.949,0.525,2.312,1.26h0.26
					c-0.059-0.533-0.081-0.822-0.081-1.832l0,0c0-1.008,0.022-1.305,0.081-1.831h-0.26c-0.363,0.727-0.451,1.253-2.254,1.269h-4.397
					v-8.988l6.704,0.037c1.69,0,1.676,0.608,1.965,1.135l0.274-0.029c-0.126-1.669-0.512-2.381-1.64-2.381
					c-1.134,0-6.799,0.089-8.246,0.104c-1.008,0-1.683,0-2.209-0.059v0.267c0.727,0.356,1.253,0.757,1.253,2.618V57.17
					c0,1.861-0.526,2.254-1.253,2.617v0.268c0.526-0.06,1.201-0.06,2.209-0.06c1.447,0.007,7.869,0.104,8.996,0.104
					s1.513-0.771,1.639-2.439L1427.557,57.622z"/>
				<path d="M1282.277,50.963c-0.778-0.008-1.542,0.008-2.18-0.097l-0.016,0.26c0.92,0.386,1.246,0.993,1.246,1.913v4.094
					c0,0.563-0.089,1.008-0.273,1.334c-0.186,0.334-0.609,0.586-1.269,0.779c-0.653,0.193-1.616,0.349-3.011,0.349
					c-6.696,0-8.951-4.212-8.951-4.212c-1.172-1.832-1.697-4.139-1.831-6.607c-0.423-8.017,4.509-10.797,9.321-10.797
					c0,0,6.11-0.275,7.793,4.078h0.312V39.18c-2.069-0.986-4.412-1.928-8.105-1.928c-5.933,0-11.354,3.611-11.354,11.635
					c0,4.264,1.558,7.089,3.678,8.854c0,0,0.742,0.646,1.559,1.053c1.297,0.646,2.498,1.135,3.678,1.336
					c1.172,0.199,2.357,0.289,3.566,0.289c3.611,0,5.146-0.602,6.785-1.09v-6.289c0-0.92,0.319-1.527,1.246-1.913l0.008-0.26
					C1283.842,50.971,1283.057,50.955,1282.277,50.963z"/>
				<path d="M1302.033,56.736l-5.695-8.098c2.158-0.953,3.559-2.736,3.559-5.303c0-4.346-3.055-5.68-6.525-5.68
					c-0.964,0-2.291,0.232-3.529,0.232c-0.779-0.007-1.535-0.029-2.173-0.125l0.007,0.259c0.92,0.386,1.217,0.968,1.217,1.88v17.582
					c0,1.857-0.586,1.984-1.254,2.307v0.264c0.527-0.06,1.194-0.06,2.203-0.06h0.008c1,0,1.676,0,2.201,0.06v-0.264
					c-0.696-0.322-1.26-0.404-1.26-2.273v-8.139c1.342,0.131,2.617,0.063,3.767-0.178c1.483,2.362,5.413,7.746,5.413,7.746
					c2.314,3.029,4.42,3.207,7.75,3.085v-0.274C1304.709,59.939,1303.241,58.355,1302.033,56.736z M1290.791,48.834v-8.961v0.029
					v-1.316c3.7-1.03,6.985,0.527,7.126,4.783C1298.051,47.232,1295.344,49.224,1290.791,48.834z"/>
			</g>
			<g>
				<path d="M1462.543,57.615V39.787l0.007,0.03c0-0.912,0.319-1.528,1.246-1.913v-0.252c-0.63,0.096-1.417,0.081-2.202,0.088
					c-0.779-0.007-1.543,0.008-2.174-0.088l-0.014,0.252c0.919,0.385,1.238,1.001,1.238,1.913v11.36
					c-0.127,3.619-2.826,8.157-7.104,8.157c-3.544,0-6.54-2.736-6.54-7.66V39.884h0.007c0-0.912,0.319-1.527,1.239-1.913
					l0.007-0.252c-0.63,0.096-1.417,0.082-2.195,0.089c-0.786-0.007-1.55,0.007-2.188-0.089l-0.007,0.252
					c0.919,0.386,1.238,1.001,1.238,1.913v11.331c0,6.348,3.975,9.336,8.395,9.137c3.967,0,6.436-3.39,7.148-6.549v3.745
					c0,1.861-0.527,1.958-1.254,2.313v0.26c0.527-0.052,1.201-0.052,2.203-0.052h0.008c1.008,0,1.683,0,2.209,0.052v-0.26
					C1463.084,59.506,1462.558,59.409,1462.543,57.615z"/>
				<path d="M1586.115,59.861c-0.719-0.355-1.246-0.452-1.26-2.246V39.787v0.03c0-0.912,0.326-1.528,1.245-1.913l0.008-0.252
					c-0.638,0.096-1.417,0.081-2.202,0.088c-0.779-0.007-1.551,0.008-2.181-0.088l-0.015,0.252c0.92,0.385,1.246,1.001,1.246,1.913
					v17.73l0,0c0,1.861-0.534,1.958-1.262,2.313v0.26c0.527-0.052,1.202-0.052,2.211-0.052l0,0c1.008,0,1.683,0,2.209,0.052V59.861z
					"/>
				<path d="M1499.776,59.861c-0.72-0.355-1.246-0.452-1.261-2.246V39.787v0.03c0-0.912,0.326-1.528,1.246-1.913l0.007-0.252
					c-0.638,0.096-1.416,0.081-2.202,0.088c-0.779-0.007-1.55,0.008-2.18-0.088l-0.016,0.252c0.92,0.385,1.246,1.001,1.246,1.913
					v17.73l0,0c0,1.861-0.534,1.958-1.261,2.313v0.26c0.526-0.052,1.201-0.052,2.21-0.052l0,0c1.008,0,1.684,0,2.21,0.052V59.861z"
					/>
				<path d="M1575.993,38.223v2.625h-0.312c-1.001-2.38-3.07-3.033-5.176-2.951c-2.529,0.097-4.094,1.75-4.212,3.352
					c-0.171,2.27,1.104,3.738,5.294,6.578c4.398,2.988,5.303,4.145,5.303,6.748c0,2.425-1.987,5.844-6.682,5.844
					c-2.031,0-4.396-0.972-5.783-1.083v-3.686h0.363c0.207,2.113,1.586,3.952,5.42,3.952c3.611,0,4.99-2.603,4.872-4.271
					c-0.147-2.091-1.001-3.151-4.612-5.65c-4.027-2.788-5.673-4.205-5.673-7.326c0-3.145,2.944-5.125,5.71-5.125
					C1573.598,37.229,1574.748,37.956,1575.993,38.223z"/>
				<path d="M1606.131,37.629c-1.135,0-4.361,0.09-5.807,0.104h-3.9c-1.454-0.015-4.688-0.104-5.814-0.104s-1.416,0.549-1.779,2.329
					h0.297c0.281-0.526,0.607-1.127,2.299-1.127h5.643c0.17,0.304,0.244,0.659,0.244,1.09v17.664
					c-0.007,1.794-0.578,1.892-1.312,2.247v0.26c0.542-0.06,1.275-0.06,2.307-0.06l0,0c1.046,0,1.735,0,2.284,0.06v-0.26
					c-0.734-0.355-1.298-0.453-1.319-2.21v-17.73l0.007,0.029c0-0.431,0.074-0.786,0.245-1.09h6.006
					c1.691,0,1.676,0.601,1.965,1.127l0.275-0.022C1607.643,38.268,1607.258,37.629,1606.131,37.629z"/>
				<path d="M1540.717,57.622c-0.273,0.526-0.266,1.134-1.957,1.134l-7.453,0.082v-9.943h4.338c1.861,0,1.951,0.525,2.314,1.26h0.26
					c-0.06-0.533-0.082-0.822-0.082-1.832l0,0c0-1.008,0.022-1.305,0.082-1.831h-0.26c-0.363,0.727-0.453,1.253-2.254,1.269h-4.398
					v-8.988l6.704,0.037c1.69,0,1.676,0.608,1.966,1.135l0.273-0.029c-0.126-1.669-0.512-2.381-1.639-2.381
					c-1.135,0-6.8,0.089-8.246,0.104c-1.008,0-1.684,0-2.209-0.059v0.267c0.727,0.356,1.252,0.757,1.252,2.618V57.17
					c0,1.861-0.525,2.254-1.252,2.617v0.268c0.525-0.06,1.201-0.06,2.209-0.06c1.446,0.007,7.868,0.104,8.995,0.104
					c1.128,0,1.513-0.771,1.64-2.439L1540.717,57.622z"/>
				<path d="M1626.864,37.808c-0.778-0.007-1.542,0.007-2.181-0.089l-0.015,0.252c0.927,0.386,1.165,0.719,0.86,1.387
					c0,0-1.164,2.276-5.621,8.729l-6.051-8.447c-0.675-0.941-1.039-1.282,0.045-1.668l0.014-0.252
					c-0.756,0.096-1.356,0.082-2.283,0.089c-0.912-0.007-1.498,0.007-2.247-0.089l-0.015,0.252c1.082,0.386,1.586,1.075,2.32,1.987
					l6.734,9.618v7.935c0,1.861-0.527,1.942-1.254,2.306v0.268c0.527-0.06,1.193-0.06,2.21-0.06c1.001,0,1.683,0,2.21,0.06v-0.268
					c-0.719-0.355-1.254-0.451-1.261-2.238v-8.276l6.096-9.418c0.875-1.164,1.706-1.527,2.632-1.913l0.008-0.252
					C1628.429,37.814,1627.65,37.801,1626.864,37.808z"/>
				<path d="M1487.748,37.801c-0.779-0.008-1.268,0.007-1.906-0.098l-0.014,0.26c0.919,0.387,1.245,1.002,1.245,1.914v16.129
					l-15.313-18.287h-0.682c-0.786,0-1.551,0.008-2.188-0.097l-0.016,0.26c0.928,0.386,1.246,1.001,1.246,1.913v17.753
					c0,1.854-0.526,1.942-1.26,2.306v0.268c0.525-0.066,1.201-0.066,2.209-0.066h0.008c1.001,0,1.676,0,2.202,0.066v-0.268
					c-0.72-0.355-1.245-0.451-1.261-2.238V40.893l15.936,19.332h0.475V39.877c0-0.912,0.327-1.527,1.246-1.914l0.008-0.26
					C1489.046,37.808,1488.534,37.793,1487.748,37.801z"/>
				<path d="M1559.516,56.736l-5.688-8.098c2.15-0.953,3.553-2.736,3.553-5.303c0-4.346-3.056-5.68-6.526-5.68
					c-0.964,0-2.292,0.232-3.53,0.232c-0.778-0.007-1.535-0.029-2.172-0.125l0.008,0.259c0.919,0.386,1.215,0.968,1.215,1.88v17.582
					c0,1.857-0.586,1.984-1.252,2.307v0.264c0.525-0.06,1.193-0.06,2.201-0.06h0.008c1.002,0,1.676,0,2.203,0.06v-0.264
					c-0.697-0.322-1.262-0.404-1.262-2.273v-8.139c1.343,0.131,2.618,0.063,3.768-0.178c1.483,2.362,5.414,7.746,5.414,7.746
					c2.312,3.029,4.419,3.207,7.341,3.296v-0.274C1562.193,59.939,1560.725,58.355,1559.516,56.736z M1548.273,48.834v-8.961
					l0.008,0.029l-0.008-1.316c3.701-1.03,6.986,0.527,7.127,4.783C1555.533,47.232,1552.827,49.224,1548.273,48.834z"/>
				<path d="M1513.287,60.447l-9.068-20.448c-0.505-1.079-1.246-1.628-2.166-2.014l-0.008-0.252
					c0.639,0.097,1.483,0.081,2.262,0.089h-0.021c0.785-0.008,1.646,0.008,2.283-0.089l-0.007,0.252
					c-0.986,0.319-0.675,1.161-0.526,1.64l0.133,0.333l7.75,17.479l8.92-17.479l0.135-0.333c0.148-0.479,0.244-1.34-0.438-1.64
					l-0.008-0.252c0.638,0.097,1.35,0.081,2.135,0.089h-0.021c0.779-0.008,1.624,0.008,2.262-0.089l-0.008,0.252
					c-0.904,0.319-2.217,0.935-2.721,2.014l-10.619,20.448H1513.287z"/>
			</g>
		</g>
	</g>
</g>
</svg>

